<svg xmlns="http://www.w3.org/2000/svg" xmlns:xlink="http://www.w3.org/1999/xlink" width="1080" zoomAndPan="magnify" viewBox="0 0 810 809.999993" height="1080" preserveAspectRatio="xMidYMid meet" version="1.0"><path fill="#fb653e" d="M 147.59375 344.761719 C 162.328125 359.488281 184.933594 337.175781 170.054688 322.296875 L 117.757812 270 L 170.054688 217.699219 C 176.257812 211.5 176.257812 201.441406 170.054688 195.238281 C 163.851562 189.039062 153.796875 189.039062 147.59375 195.238281 L 84.0625 258.769531 C 77.863281 264.96875 77.863281 275.027344 84.0625 281.230469 Z M 147.59375 344.761719 " fill-opacity="1" fill-rule="nonzero"/><path fill="#fb653e" d="M 328.878906 344.761719 L 392.40625 281.230469 C 398.609375 275.027344 398.609375 264.972656 392.40625 258.769531 L 328.878906 195.238281 C 322.671875 189.039062 312.621094 189.039062 306.414062 195.238281 C 300.214844 201.441406 300.214844 211.496094 306.414062 217.699219 L 358.714844 270 L 306.414062 322.300781 C 291.527344 337.183594 314.183594 359.449219 328.878906 344.761719 Z M 328.878906 344.761719 " fill-opacity="1" fill-rule="nonzero"/><path fill="#fb653e" d="M 222.367188 349.414062 C 229.480469 349.414062 235.957031 344.597656 237.761719 337.382812 L 269.523438 210.324219 C 271.652344 201.8125 266.480469 193.191406 257.96875 191.0625 C 249.457031 188.933594 240.839844 194.109375 238.710938 202.617188 L 206.945312 329.675781 C 204.441406 339.6875 212.015625 349.414062 222.367188 349.414062 Z M 222.367188 349.414062 " fill-opacity="1" fill-rule="nonzero"/><path fill="#fb653e" d="M 397.058594 444.707031 C 388.285156 444.707031 381.175781 451.816406 381.175781 460.589844 C 381.175781 469.359375 388.285156 476.46875 397.058594 476.46875 L 714.707031 476.46875 C 723.476562 476.46875 730.589844 469.359375 730.589844 460.589844 C 730.589844 451.816406 723.476562 444.707031 714.707031 444.707031 L 698.824219 444.707031 L 698.824219 317.648438 C 698.824219 308.875 691.710938 301.765625 682.941406 301.765625 C 674.171875 301.765625 667.058594 308.875 667.058594 317.648438 L 667.058594 444.707031 L 635.292969 444.707031 L 635.292969 285.882812 C 635.292969 277.109375 628.183594 270 619.410156 270 C 610.640625 270 603.53125 277.109375 603.53125 285.882812 L 603.53125 444.707031 L 571.765625 444.707031 L 571.765625 381.175781 C 571.765625 372.40625 564.652344 365.292969 555.882812 365.292969 C 547.113281 365.292969 540 372.40625 540 381.175781 L 540 444.707031 L 508.234375 444.707031 L 508.234375 349.410156 C 508.234375 340.640625 501.125 333.53125 492.351562 333.53125 C 483.582031 333.53125 476.46875 340.640625 476.46875 349.410156 L 476.46875 444.707031 L 444.707031 444.707031 L 444.707031 397.058594 C 444.707031 388.285156 437.59375 381.175781 428.824219 381.175781 C 420.054688 381.175781 412.941406 388.285156 412.941406 397.058594 L 412.941406 444.707031 Z M 397.058594 444.707031 " fill-opacity="1" fill-rule="nonzero"/><path fill="#fb653e" d="M 428.824219 111.175781 L 714.707031 111.175781 C 723.476562 111.175781 730.589844 104.0625 730.589844 95.292969 C 730.589844 86.523438 723.476562 79.410156 714.707031 79.410156 L 428.824219 79.410156 C 420.054688 79.410156 412.941406 86.523438 412.941406 95.292969 C 412.941406 104.0625 420.054688 111.175781 428.824219 111.175781 Z M 428.824219 111.175781 " fill-opacity="1" fill-rule="nonzero"/><path fill="#fb653e" d="M 428.824219 174.707031 L 619.410156 174.707031 C 628.183594 174.707031 635.292969 167.59375 635.292969 158.824219 C 635.292969 150.054688 628.183594 142.941406 619.410156 142.941406 L 428.824219 142.941406 C 420.054688 142.941406 412.941406 150.054688 412.941406 158.824219 C 412.941406 167.59375 420.054688 174.707031 428.824219 174.707031 Z M 428.824219 174.707031 " fill-opacity="1" fill-rule="nonzero"/><path fill="#fb653e" d="M 730.589844 603.53125 C 730.589844 604.050781 730.5625 604.570312 730.511719 605.085938 C 730.460938 605.605469 730.382812 606.117188 730.28125 606.628906 C 730.179688 607.136719 730.054688 607.640625 729.90625 608.140625 C 729.753906 608.636719 729.578125 609.125 729.378906 609.605469 C 729.179688 610.089844 728.957031 610.558594 728.710938 611.015625 C 728.46875 611.476562 728.199219 611.921875 727.910156 612.351562 C 727.621094 612.785156 727.3125 613.203125 726.984375 613.605469 C 726.652344 614.007812 726.304688 614.390625 725.9375 614.761719 C 725.570312 615.128906 725.183594 615.476562 724.78125 615.804688 C 724.378906 616.136719 723.960938 616.445312 723.53125 616.734375 C 723.097656 617.023438 722.652344 617.292969 722.191406 617.535156 C 721.734375 617.78125 721.265625 618.003906 720.785156 618.203125 C 720.304688 618.402344 719.8125 618.578125 719.316406 618.726562 C 718.820312 618.878906 718.316406 619.003906 717.804688 619.105469 C 717.292969 619.207031 716.78125 619.285156 716.261719 619.335938 C 715.746094 619.386719 715.226562 619.410156 714.707031 619.410156 C 714.1875 619.410156 713.667969 619.386719 713.148438 619.335938 C 712.632812 619.285156 712.117188 619.207031 711.605469 619.105469 C 711.097656 619.003906 710.59375 618.878906 710.09375 618.726562 C 709.597656 618.578125 709.109375 618.402344 708.628906 618.203125 C 708.148438 618.003906 707.675781 617.78125 707.21875 617.535156 C 706.761719 617.292969 706.316406 617.023438 705.882812 616.734375 C 705.449219 616.445312 705.03125 616.136719 704.628906 615.804688 C 704.226562 615.476562 703.84375 615.128906 703.476562 614.761719 C 703.109375 614.390625 702.757812 614.007812 702.429688 613.605469 C 702.097656 613.203125 701.789062 612.785156 701.5 612.351562 C 701.210938 611.921875 700.945312 611.476562 700.699219 611.015625 C 700.453125 610.558594 700.230469 610.089844 700.03125 609.605469 C 699.832031 609.125 699.660156 608.636719 699.507812 608.140625 C 699.355469 607.640625 699.230469 607.136719 699.128906 606.628906 C 699.027344 606.117188 698.949219 605.605469 698.898438 605.085938 C 698.847656 604.570312 698.824219 604.050781 698.824219 603.53125 C 698.824219 603.007812 698.847656 602.492188 698.898438 601.972656 C 698.949219 601.453125 699.027344 600.941406 699.128906 600.429688 C 699.230469 599.921875 699.355469 599.417969 699.507812 598.917969 C 699.660156 598.421875 699.832031 597.933594 700.03125 597.453125 C 700.230469 596.972656 700.453125 596.5 700.699219 596.042969 C 700.945312 595.582031 701.210938 595.136719 701.5 594.707031 C 701.789062 594.273438 702.097656 593.855469 702.429688 593.453125 C 702.757812 593.050781 703.109375 592.667969 703.476562 592.300781 C 703.84375 591.929688 704.226562 591.582031 704.628906 591.253906 C 705.03125 590.921875 705.449219 590.613281 705.882812 590.324219 C 706.316406 590.035156 706.761719 589.769531 707.21875 589.523438 C 707.675781 589.277344 708.148438 589.054688 708.628906 588.855469 C 709.109375 588.65625 709.597656 588.480469 710.09375 588.332031 C 710.59375 588.179688 711.097656 588.054688 711.605469 587.953125 C 712.117188 587.851562 712.632812 587.773438 713.148438 587.722656 C 713.667969 587.671875 714.1875 587.648438 714.707031 587.648438 C 715.226562 587.648438 715.746094 587.671875 716.261719 587.722656 C 716.78125 587.773438 717.292969 587.851562 717.804688 587.953125 C 718.316406 588.054688 718.820312 588.179688 719.316406 588.332031 C 719.8125 588.480469 720.304688 588.65625 720.785156 588.855469 C 721.265625 589.054688 721.734375 589.277344 722.191406 589.523438 C 722.652344 589.769531 723.097656 590.035156 723.53125 590.324219 C 723.960938 590.613281 724.378906 590.921875 724.78125 591.253906 C 725.183594 591.582031 725.570312 591.929688 725.9375 592.300781 C 726.304688 592.667969 726.652344 593.050781 726.984375 593.453125 C 727.3125 593.855469 727.621094 594.273438 727.910156 594.707031 C 728.199219 595.136719 728.46875 595.582031 728.710938 596.042969 C 728.957031 596.5 729.179688 596.972656 729.378906 597.453125 C 729.578125 597.933594 729.753906 598.421875 729.902344 598.917969 C 730.054688 599.417969 730.179688 599.921875 730.28125 600.429688 C 730.382812 600.941406 730.460938 601.453125 730.511719 601.972656 C 730.5625 602.492188 730.589844 603.007812 730.589844 603.53125 Z M 730.589844 603.53125 " fill-opacity="1" fill-rule="nonzero"/><path fill="#fb653e" d="M 651.175781 587.648438 L 635.292969 587.648438 C 626.523438 587.648438 619.410156 594.757812 619.410156 603.53125 C 619.410156 612.300781 626.523438 619.410156 635.292969 619.410156 L 651.175781 619.410156 C 659.945312 619.410156 667.058594 612.300781 667.058594 603.53125 C 667.058594 594.757812 659.945312 587.648438 651.175781 587.648438 Z M 651.175781 587.648438 " fill-opacity="1" fill-rule="nonzero"/><path fill="#fb653e" d="M 571.765625 587.648438 L 555.882812 587.648438 C 547.113281 587.648438 540 594.757812 540 603.53125 C 540 612.300781 547.113281 619.410156 555.882812 619.410156 L 571.765625 619.410156 C 580.535156 619.410156 587.648438 612.300781 587.648438 603.53125 C 587.648438 594.757812 580.535156 587.648438 571.765625 587.648438 Z M 571.765625 587.648438 " fill-opacity="1" fill-rule="nonzero"/><path fill="#fb653e" d="M 722.773438 0 L 87.226562 0 C 39.128906 0 0 39.128906 0 87.226562 L 0 595.714844 C 0 643.8125 39.128906 682.941406 87.226562 682.941406 L 325.589844 682.941406 L 325.589844 714.707031 L 309.707031 714.707031 C 265.917969 714.707031 230.292969 750.328125 230.292969 794.117188 C 230.292969 802.886719 237.40625 810 246.175781 810 L 563.824219 810 C 572.59375 810 579.707031 802.886719 579.707031 794.117188 C 579.707031 750.328125 544.082031 714.707031 500.292969 714.707031 L 484.410156 714.707031 L 484.410156 682.941406 L 722.773438 682.941406 C 770.871094 682.941406 810 643.8125 810 595.714844 L 810 87.226562 C 810 39.128906 770.871094 0 722.773438 0 Z M 87.226562 31.765625 L 722.773438 31.765625 C 753.355469 31.765625 778.234375 56.644531 778.234375 87.226562 L 778.234375 524.117188 L 31.765625 524.117188 L 31.765625 87.226562 C 31.765625 56.644531 56.644531 31.765625 87.226562 31.765625 Z M 545.21875 778.234375 L 264.78125 778.234375 C 271.335938 759.746094 289 746.46875 309.707031 746.46875 L 500.292969 746.46875 C 521 746.46875 538.664062 759.746094 545.21875 778.234375 Z M 452.648438 714.707031 L 357.351562 714.707031 L 357.351562 682.941406 L 452.648438 682.941406 Z M 722.773438 651.175781 L 87.226562 651.175781 C 56.644531 651.175781 31.765625 626.296875 31.765625 595.714844 L 31.765625 555.882812 L 778.234375 555.882812 L 778.234375 595.714844 C 778.234375 626.296875 753.355469 651.175781 722.773438 651.175781 Z M 722.773438 651.175781 " fill-opacity="1" fill-rule="nonzero"/></svg>