<svg xmlns="http://www.w3.org/2000/svg" xmlns:xlink="http://www.w3.org/1999/xlink" width="1080" zoomAndPan="magnify" viewBox="0 0 810 809.999993" height="1080" preserveAspectRatio="xMidYMid meet" version="1.0"><defs><clipPath id="40c1cd43b5"><path d="M 0 56.699219 L 810 56.699219 L 810 753.449219 L 0 753.449219 Z M 0 56.699219 " clip-rule="nonzero"/></clipPath></defs><g clip-path="url(#40c1cd43b5)"><path fill="#fb653e" d="M 743.886719 56.699219 L 66.113281 56.699219 C 65.035156 56.703125 63.960938 56.730469 62.882812 56.785156 C 61.804688 56.835938 60.730469 56.917969 59.660156 57.023438 C 58.585938 57.132812 57.515625 57.265625 56.449219 57.425781 C 55.382812 57.582031 54.320312 57.769531 53.265625 57.980469 C 52.207031 58.191406 51.15625 58.429688 50.109375 58.691406 C 49.066406 58.953125 48.027344 59.242188 46.996094 59.554688 C 45.964844 59.871094 44.941406 60.207031 43.925781 60.574219 C 42.910156 60.9375 41.90625 61.324219 40.910156 61.738281 C 39.914062 62.152344 38.929688 62.589844 37.957031 63.050781 C 36.980469 63.511719 36.019531 63.996094 35.066406 64.507812 C 34.117188 65.015625 33.179688 65.546875 32.253906 66.101562 C 31.332031 66.65625 30.421875 67.234375 29.523438 67.832031 C 28.628906 68.433594 27.746094 69.050781 26.882812 69.695312 C 26.015625 70.335938 25.167969 71 24.332031 71.683594 C 23.5 72.371094 22.683594 73.074219 21.886719 73.796875 C 21.085938 74.523438 20.304688 75.265625 19.542969 76.027344 C 18.78125 76.789062 18.039062 77.570312 17.3125 78.371094 C 16.589844 79.167969 15.886719 79.984375 15.203125 80.820312 C 14.519531 81.652344 13.855469 82.5 13.210938 83.367188 C 12.570312 84.234375 11.949219 85.113281 11.351562 86.011719 C 10.75 86.90625 10.175781 87.816406 9.621094 88.742188 C 9.066406 89.667969 8.53125 90.605469 8.023438 91.554688 C 7.515625 92.507812 7.03125 93.46875 6.570312 94.445312 C 6.109375 95.417969 5.671875 96.402344 5.257812 97.398438 C 4.84375 98.394531 4.457031 99.402344 4.09375 100.414062 C 3.726562 101.429688 3.390625 102.453125 3.074219 103.484375 C 2.761719 104.515625 2.472656 105.554688 2.210938 106.601562 C 1.949219 107.648438 1.710938 108.699219 1.5 109.757812 C 1.289062 110.8125 1.101562 111.875 0.945312 112.941406 C 0.785156 114.007812 0.652344 115.078125 0.542969 116.152344 C 0.4375 117.222656 0.359375 118.300781 0.304688 119.375 C 0.25 120.453125 0.222656 121.53125 0.21875 122.609375 L 0.21875 687.542969 C 0.222656 688.621094 0.25 689.699219 0.304688 690.773438 C 0.359375 691.851562 0.4375 692.925781 0.542969 694 C 0.652344 695.070312 0.785156 696.140625 0.945312 697.207031 C 1.101562 698.273438 1.289062 699.335938 1.5 700.394531 C 1.710938 701.453125 1.949219 702.503906 2.210938 703.550781 C 2.472656 704.59375 2.761719 705.632812 3.074219 706.664062 C 3.390625 707.695312 3.726562 708.71875 4.09375 709.734375 C 4.457031 710.75 4.84375 711.753906 5.257812 712.75 C 5.671875 713.746094 6.109375 714.734375 6.570312 715.707031 C 7.03125 716.679688 7.515625 717.644531 8.023438 718.59375 C 8.53125 719.546875 9.066406 720.484375 9.621094 721.40625 C 10.175781 722.332031 10.75 723.242188 11.351562 724.140625 C 11.949219 725.035156 12.570312 725.917969 13.210938 726.78125 C 13.855469 727.648438 14.519531 728.5 15.203125 729.332031 C 15.886719 730.164062 16.589844 730.980469 17.3125 731.78125 C 18.039062 732.578125 18.78125 733.359375 19.542969 734.121094 C 20.304688 734.886719 21.085938 735.628906 21.886719 736.351562 C 22.683594 737.078125 23.5 737.78125 24.332031 738.464844 C 25.167969 739.148438 26.015625 739.8125 26.882812 740.457031 C 27.746094 741.097656 28.628906 741.71875 29.523438 742.316406 C 30.421875 742.917969 31.332031 743.496094 32.253906 744.050781 C 33.179688 744.605469 34.117188 745.136719 35.066406 745.644531 C 36.019531 746.152344 36.980469 746.636719 37.957031 747.101562 C 38.929688 747.5625 39.914062 748 40.910156 748.410156 C 41.90625 748.824219 42.910156 749.214844 43.925781 749.578125 C 44.941406 749.941406 45.964844 750.28125 46.996094 750.59375 C 48.027344 750.90625 49.066406 751.195312 50.109375 751.460938 C 51.15625 751.722656 52.207031 751.960938 53.265625 752.171875 C 54.320312 752.382812 55.382812 752.566406 56.449219 752.726562 C 57.515625 752.886719 58.585938 753.019531 59.660156 753.125 C 60.730469 753.234375 61.804688 753.3125 62.882812 753.367188 C 63.960938 753.421875 65.035156 753.449219 66.113281 753.449219 L 743.886719 753.449219 C 744.964844 753.449219 746.039062 753.421875 747.117188 753.367188 C 748.195312 753.3125 749.269531 753.234375 750.339844 753.125 C 751.414062 753.019531 752.484375 752.886719 753.550781 752.726562 C 754.617188 752.566406 755.679688 752.382812 756.734375 752.171875 C 757.792969 751.960938 758.84375 751.722656 759.890625 751.460938 C 760.933594 751.195312 761.972656 750.90625 763.003906 750.59375 C 764.035156 750.28125 765.058594 749.941406 766.074219 749.578125 C 767.089844 749.214844 768.09375 748.824219 769.089844 748.410156 C 770.085938 748 771.070312 747.5625 772.042969 747.101562 C 773.019531 746.636719 773.980469 746.152344 774.933594 745.644531 C 775.882812 745.136719 776.820312 744.605469 777.746094 744.050781 C 778.667969 743.496094 779.578125 742.917969 780.476562 742.316406 C 781.371094 741.71875 782.253906 741.097656 783.117188 740.457031 C 783.984375 739.8125 784.832031 739.148438 785.667969 738.464844 C 786.5 737.78125 787.316406 737.078125 788.113281 736.351562 C 788.914062 735.628906 789.695312 734.886719 790.457031 734.121094 C 791.21875 733.359375 791.960938 732.578125 792.6875 731.78125 C 793.410156 730.980469 794.113281 730.164062 794.796875 729.332031 C 795.480469 728.5 796.144531 727.648438 796.789062 726.78125 C 797.429688 725.917969 798.050781 725.035156 798.648438 724.140625 C 799.25 723.242188 799.828125 722.332031 800.382812 721.40625 C 800.933594 720.484375 801.46875 719.546875 801.976562 718.59375 C 802.484375 717.644531 802.96875 716.679688 803.429688 715.707031 C 803.890625 714.734375 804.328125 713.746094 804.742188 712.75 C 805.15625 711.753906 805.542969 710.75 805.910156 709.734375 C 806.273438 708.71875 806.609375 707.695312 806.925781 706.664062 C 807.238281 705.632812 807.527344 704.59375 807.789062 703.550781 C 808.050781 702.503906 808.289062 701.453125 808.5 700.394531 C 808.710938 699.335938 808.898438 698.273438 809.054688 697.207031 C 809.214844 696.140625 809.347656 695.070312 809.457031 694 C 809.5625 692.925781 809.640625 691.851562 809.695312 690.773438 C 809.75 689.699219 809.777344 688.621094 809.78125 687.542969 L 809.78125 122.609375 C 809.777344 121.53125 809.75 120.453125 809.695312 119.375 C 809.640625 118.300781 809.5625 117.222656 809.457031 116.152344 C 809.347656 115.078125 809.214844 114.007812 809.054688 112.941406 C 808.898438 111.875 808.710938 110.8125 808.5 109.757812 C 808.289062 108.699219 808.050781 107.648438 807.789062 106.601562 C 807.527344 105.554688 807.238281 104.515625 806.925781 103.484375 C 806.609375 102.453125 806.273438 101.429688 805.90625 100.414062 C 805.542969 99.402344 805.15625 98.394531 804.742188 97.398438 C 804.328125 96.402344 803.890625 95.417969 803.429688 94.445312 C 802.96875 93.46875 802.484375 92.507812 801.976562 91.554688 C 801.46875 90.605469 800.933594 89.667969 800.378906 88.742188 C 799.824219 87.816406 799.25 86.90625 798.648438 86.011719 C 798.050781 85.113281 797.429688 84.234375 796.789062 83.367188 C 796.144531 82.5 795.480469 81.652344 794.796875 80.820312 C 794.113281 79.984375 793.410156 79.167969 792.6875 78.371094 C 791.960938 77.570312 791.21875 76.789062 790.457031 76.027344 C 789.695312 75.265625 788.914062 74.523438 788.113281 73.796875 C 787.316406 73.074219 786.5 72.371094 785.667969 71.683594 C 784.832031 71 783.984375 70.335938 783.117188 69.695312 C 782.253906 69.050781 781.371094 68.433594 780.476562 67.832031 C 779.578125 67.234375 778.667969 66.65625 777.746094 66.101562 C 776.820312 65.546875 775.882812 65.015625 774.933594 64.507812 C 773.980469 63.996094 773.019531 63.511719 772.042969 63.050781 C 771.070312 62.589844 770.085938 62.152344 769.089844 61.738281 C 768.09375 61.324219 767.089844 60.9375 766.074219 60.574219 C 765.058594 60.207031 764.035156 59.871094 763.003906 59.554688 C 761.972656 59.242188 760.933594 58.953125 759.890625 58.691406 C 758.84375 58.429688 757.792969 58.191406 756.734375 57.980469 C 755.679688 57.769531 754.617188 57.582031 753.550781 57.425781 C 752.484375 57.265625 751.414062 57.132812 750.339844 57.023438 C 749.269531 56.917969 748.195312 56.835938 747.117188 56.785156 C 746.039062 56.730469 744.964844 56.703125 743.886719 56.699219 Z M 66.113281 75.53125 L 743.886719 75.53125 C 745.425781 75.53125 746.964844 75.609375 748.496094 75.761719 C 750.03125 75.914062 751.554688 76.144531 753.0625 76.445312 C 754.574219 76.746094 756.066406 77.121094 757.542969 77.570312 C 759.015625 78.019531 760.464844 78.539062 761.890625 79.128906 C 763.3125 79.71875 764.703125 80.378906 766.0625 81.105469 C 767.421875 81.832031 768.742188 82.625 770.023438 83.480469 C 771.300781 84.339844 772.539062 85.257812 773.730469 86.234375 C 774.921875 87.210938 776.0625 88.246094 777.152344 89.335938 C 778.242188 90.425781 779.273438 91.566406 780.253906 92.757812 C 781.230469 93.949219 782.148438 95.1875 783.003906 96.46875 C 783.859375 97.75 784.652344 99.070312 785.378906 100.425781 C 786.105469 101.785156 786.765625 103.179688 787.355469 104.601562 C 787.945312 106.027344 788.464844 107.476562 788.914062 108.949219 C 789.363281 110.425781 789.738281 111.917969 790.039062 113.429688 C 790.339844 114.941406 790.570312 116.460938 790.722656 117.996094 C 790.875 119.53125 790.949219 121.066406 790.953125 122.609375 L 790.953125 169.6875 L 19.046875 169.6875 L 19.046875 122.609375 C 19.050781 121.066406 19.125 119.53125 19.277344 117.996094 C 19.429688 116.460938 19.660156 114.941406 19.960938 113.429688 C 20.261719 111.917969 20.636719 110.425781 21.085938 108.949219 C 21.535156 107.476562 22.054688 106.027344 22.644531 104.601562 C 23.234375 103.179688 23.894531 101.785156 24.621094 100.425781 C 25.347656 99.070312 26.140625 97.75 26.996094 96.46875 C 27.851562 95.1875 28.769531 93.949219 29.746094 92.757812 C 30.726562 91.566406 31.757812 90.425781 32.847656 89.335938 C 33.9375 88.246094 35.078125 87.210938 36.269531 86.234375 C 37.460938 85.257812 38.699219 84.339844 39.976562 83.480469 C 41.257812 82.625 42.578125 81.832031 43.9375 81.105469 C 45.296875 80.378906 46.6875 79.71875 48.109375 79.128906 C 49.535156 78.539062 50.984375 78.019531 52.457031 77.570312 C 53.933594 77.121094 55.425781 76.746094 56.9375 76.445312 C 58.445312 76.144531 59.96875 75.914062 61.503906 75.761719 C 63.035156 75.609375 64.574219 75.53125 66.113281 75.53125 Z M 743.886719 734.617188 L 66.113281 734.617188 C 64.574219 734.617188 63.035156 734.539062 61.503906 734.386719 C 59.96875 734.234375 58.445312 734.007812 56.9375 733.707031 C 55.425781 733.402344 53.933594 733.027344 52.457031 732.578125 C 50.984375 732.132812 49.535156 731.613281 48.109375 731.019531 C 46.6875 730.429688 45.296875 729.769531 43.9375 729.042969 C 42.578125 728.316406 41.257812 727.523438 39.976562 726.667969 C 38.699219 725.8125 37.460938 724.894531 36.269531 723.917969 C 35.078125 722.9375 33.9375 721.902344 32.847656 720.8125 C 31.757812 719.722656 30.726562 718.582031 29.746094 717.390625 C 28.769531 716.199219 27.851562 714.964844 26.996094 713.683594 C 26.140625 712.402344 25.347656 711.082031 24.621094 709.722656 C 23.894531 708.363281 23.234375 706.972656 22.644531 705.546875 C 22.054688 704.125 21.535156 702.675781 21.085938 701.203125 C 20.636719 699.726562 20.261719 698.234375 19.960938 696.722656 C 19.660156 695.210938 19.429688 693.6875 19.277344 692.152344 C 19.125 690.621094 19.050781 689.082031 19.046875 687.542969 L 19.046875 188.519531 L 790.953125 188.519531 L 790.953125 687.542969 C 790.949219 689.082031 790.875 690.621094 790.722656 692.152344 C 790.570312 693.6875 790.339844 695.210938 790.039062 696.722656 C 789.738281 698.234375 789.363281 699.726562 788.914062 701.203125 C 788.464844 702.675781 787.945312 704.125 787.355469 705.546875 C 786.765625 706.972656 786.105469 708.363281 785.378906 709.722656 C 784.652344 711.082031 783.859375 712.402344 783.003906 713.683594 C 782.148438 714.964844 781.230469 716.199219 780.253906 717.390625 C 779.273438 718.582031 778.242188 719.722656 777.152344 720.8125 C 776.0625 721.902344 774.921875 722.9375 773.730469 723.917969 C 772.539062 724.894531 771.300781 725.8125 770.023438 726.667969 C 768.742188 727.523438 767.421875 728.316406 766.0625 729.042969 C 764.703125 729.769531 763.3125 730.429688 761.890625 731.019531 C 760.464844 731.613281 759.015625 732.132812 757.542969 732.578125 C 756.066406 733.027344 754.574219 733.402344 753.0625 733.707031 C 751.554688 734.007812 750.03125 734.234375 748.496094 734.386719 C 746.964844 734.539062 745.425781 734.617188 743.886719 734.617188 Z M 743.886719 734.617188 " fill-opacity="1" fill-rule="nonzero"/></g><path fill="#fb653e" d="M 75.527344 150.855469 C 76.453125 150.855469 77.375 150.808594 78.296875 150.71875 C 79.214844 150.628906 80.128906 150.492188 81.039062 150.3125 C 81.945312 150.132812 82.839844 149.90625 83.726562 149.640625 C 84.609375 149.371094 85.480469 149.058594 86.335938 148.707031 C 87.191406 148.351562 88.023438 147.957031 88.839844 147.519531 C 89.65625 147.085938 90.449219 146.609375 91.21875 146.09375 C 91.988281 145.582031 92.730469 145.03125 93.445312 144.445312 C 94.160156 143.855469 94.84375 143.238281 95.496094 142.582031 C 96.152344 141.929688 96.773438 141.242188 97.359375 140.527344 C 97.945312 139.8125 98.496094 139.070312 99.007812 138.300781 C 99.523438 137.53125 99.996094 136.742188 100.433594 135.925781 C 100.871094 135.109375 101.265625 134.273438 101.617188 133.417969 C 101.972656 132.5625 102.285156 131.695312 102.550781 130.808594 C 102.820312 129.921875 103.046875 129.027344 103.226562 128.121094 C 103.40625 127.210938 103.542969 126.296875 103.632812 125.378906 C 103.722656 124.457031 103.769531 123.535156 103.769531 122.609375 C 103.769531 121.683594 103.722656 120.761719 103.632812 119.839844 C 103.542969 118.917969 103.40625 118.003906 103.226562 117.097656 C 103.046875 116.191406 102.820312 115.292969 102.550781 114.410156 C 102.285156 113.523438 101.972656 112.652344 101.617188 111.800781 C 101.265625 110.945312 100.871094 110.109375 100.433594 109.292969 C 99.996094 108.476562 99.523438 107.683594 99.007812 106.917969 C 98.496094 106.148438 97.945312 105.40625 97.359375 104.691406 C 96.773438 103.972656 96.152344 103.289062 95.496094 102.636719 C 94.84375 101.980469 94.160156 101.359375 93.445312 100.773438 C 92.730469 100.1875 91.988281 99.636719 91.21875 99.121094 C 90.449219 98.609375 89.65625 98.132812 88.839844 97.699219 C 88.023438 97.261719 87.191406 96.867188 86.335938 96.511719 C 85.480469 96.160156 84.609375 95.847656 83.726562 95.578125 C 82.839844 95.308594 81.945312 95.085938 81.039062 94.90625 C 80.128906 94.726562 79.214844 94.589844 78.296875 94.5 C 77.375 94.40625 76.453125 94.363281 75.527344 94.363281 C 74.601562 94.363281 73.679688 94.40625 72.761719 94.5 C 71.839844 94.589844 70.925781 94.726562 70.019531 94.90625 C 69.113281 95.085938 68.214844 95.308594 67.332031 95.578125 C 66.445312 95.847656 65.574219 96.160156 64.722656 96.511719 C 63.867188 96.867188 63.03125 97.261719 62.214844 97.699219 C 61.398438 98.132812 60.609375 98.609375 59.839844 99.121094 C 59.070312 99.636719 58.328125 100.1875 57.613281 100.773438 C 56.898438 101.359375 56.214844 101.980469 55.558594 102.636719 C 54.90625 103.289062 54.285156 103.972656 53.699219 104.691406 C 53.109375 105.40625 52.5625 106.148438 52.046875 106.917969 C 51.535156 107.683594 51.058594 108.476562 50.621094 109.292969 C 50.1875 110.109375 49.792969 110.945312 49.4375 111.800781 C 49.082031 112.652344 48.773438 113.523438 48.503906 114.410156 C 48.234375 115.292969 48.011719 116.191406 47.832031 117.097656 C 47.648438 118.003906 47.515625 118.917969 47.421875 119.839844 C 47.332031 120.761719 47.289062 121.683594 47.289062 122.609375 C 47.289062 123.535156 47.335938 124.457031 47.425781 125.375 C 47.519531 126.296875 47.652344 127.210938 47.835938 128.117188 C 48.015625 129.023438 48.242188 129.921875 48.511719 130.804688 C 48.78125 131.691406 49.089844 132.558594 49.445312 133.414062 C 49.800781 134.269531 50.195312 135.101562 50.632812 135.917969 C 51.066406 136.734375 51.542969 137.527344 52.054688 138.292969 C 52.570312 139.0625 53.121094 139.804688 53.707031 140.519531 C 54.292969 141.234375 54.914062 141.917969 55.566406 142.574219 C 56.222656 143.226562 56.90625 143.847656 57.621094 144.433594 C 58.335938 145.019531 59.078125 145.570312 59.847656 146.085938 C 60.613281 146.601562 61.40625 147.074219 62.222656 147.511719 C 63.035156 147.949219 63.871094 148.34375 64.726562 148.695312 C 65.578125 149.050781 66.449219 149.363281 67.332031 149.632812 C 68.21875 149.902344 69.113281 150.125 70.019531 150.308594 C 70.925781 150.488281 71.839844 150.625 72.761719 150.71875 C 73.679688 150.808594 74.601562 150.855469 75.527344 150.855469 Z M 75.527344 113.195312 C 76.144531 113.195312 76.757812 113.253906 77.363281 113.375 C 77.972656 113.496094 78.558594 113.671875 79.128906 113.910156 C 79.703125 114.148438 80.242188 114.4375 80.757812 114.78125 C 81.273438 115.125 81.746094 115.515625 82.183594 115.953125 C 82.621094 116.386719 83.011719 116.863281 83.355469 117.378906 C 83.699219 117.890625 83.988281 118.433594 84.226562 119.003906 C 84.460938 119.578125 84.640625 120.164062 84.761719 120.773438 C 84.882812 121.378906 84.941406 121.992188 84.941406 122.609375 C 84.941406 123.226562 84.882812 123.839844 84.761719 124.445312 C 84.640625 125.050781 84.460938 125.640625 84.226562 126.210938 C 83.988281 126.785156 83.699219 127.324219 83.355469 127.839844 C 83.011719 128.355469 82.621094 128.828125 82.183594 129.265625 C 81.746094 129.703125 81.273438 130.09375 80.757812 130.4375 C 80.242188 130.78125 79.703125 131.070312 79.128906 131.308594 C 78.558594 131.542969 77.972656 131.722656 77.363281 131.84375 C 76.757812 131.964844 76.144531 132.023438 75.527344 132.023438 C 74.910156 132.023438 74.296875 131.964844 73.691406 131.84375 C 73.085938 131.722656 72.496094 131.542969 71.925781 131.308594 C 71.355469 131.070312 70.8125 130.78125 70.296875 130.4375 C 69.785156 130.09375 69.308594 129.703125 68.871094 129.265625 C 68.433594 128.828125 68.042969 128.355469 67.699219 127.839844 C 67.359375 127.324219 67.066406 126.785156 66.832031 126.210938 C 66.59375 125.640625 66.417969 125.050781 66.296875 124.445312 C 66.175781 123.839844 66.113281 123.226562 66.113281 122.609375 C 66.113281 121.992188 66.175781 121.378906 66.296875 120.773438 C 66.417969 120.167969 66.597656 119.578125 66.832031 119.007812 C 67.070312 118.4375 67.359375 117.894531 67.703125 117.378906 C 68.046875 116.867188 68.4375 116.390625 68.875 115.953125 C 69.3125 115.515625 69.785156 115.125 70.300781 114.78125 C 70.8125 114.4375 71.355469 114.148438 71.925781 113.910156 C 72.496094 113.675781 73.085938 113.496094 73.691406 113.375 C 74.296875 113.253906 74.910156 113.195312 75.527344 113.195312 Z M 75.527344 113.195312 " fill-opacity="1" fill-rule="nonzero"/><path fill="#fb653e" d="M 150.835938 150.855469 C 151.761719 150.855469 152.683594 150.808594 153.605469 150.71875 C 154.523438 150.628906 155.4375 150.492188 156.34375 150.3125 C 157.253906 150.132812 158.148438 149.90625 159.035156 149.640625 C 159.917969 149.371094 160.789062 149.058594 161.644531 148.707031 C 162.496094 148.351562 163.332031 147.957031 164.148438 147.519531 C 164.964844 147.085938 165.757812 146.609375 166.527344 146.09375 C 167.292969 145.582031 168.035156 145.03125 168.75 144.445312 C 169.464844 143.855469 170.152344 143.238281 170.804688 142.582031 C 171.460938 141.929688 172.078125 141.242188 172.667969 140.527344 C 173.253906 139.8125 173.804688 139.070312 174.316406 138.300781 C 174.832031 137.53125 175.304688 136.742188 175.742188 135.925781 C 176.179688 135.109375 176.574219 134.273438 176.925781 133.417969 C 177.28125 132.5625 177.59375 131.695312 177.859375 130.808594 C 178.128906 129.921875 178.351562 129.027344 178.535156 128.121094 C 178.714844 127.210938 178.851562 126.296875 178.941406 125.378906 C 179.03125 124.457031 179.078125 123.535156 179.078125 122.609375 C 179.078125 121.683594 179.03125 120.761719 178.941406 119.839844 C 178.851562 118.917969 178.714844 118.003906 178.535156 117.097656 C 178.351562 116.191406 178.128906 115.292969 177.859375 114.410156 C 177.59375 113.523438 177.28125 112.652344 176.925781 111.800781 C 176.574219 110.945312 176.179688 110.109375 175.742188 109.292969 C 175.304688 108.476562 174.832031 107.683594 174.316406 106.917969 C 173.804688 106.148438 173.253906 105.40625 172.667969 104.691406 C 172.078125 103.972656 171.460938 103.289062 170.804688 102.636719 C 170.152344 101.980469 169.464844 101.359375 168.75 100.773438 C 168.035156 100.1875 167.292969 99.636719 166.527344 99.121094 C 165.757812 98.609375 164.964844 98.132812 164.148438 97.699219 C 163.332031 97.261719 162.496094 96.867188 161.644531 96.511719 C 160.789062 96.160156 159.917969 95.847656 159.035156 95.578125 C 158.148438 95.308594 157.253906 95.085938 156.34375 94.90625 C 155.4375 94.726562 154.523438 94.589844 153.605469 94.5 C 152.683594 94.40625 151.761719 94.363281 150.835938 94.363281 C 149.910156 94.363281 148.988281 94.40625 148.066406 94.5 C 147.148438 94.589844 146.234375 94.726562 145.328125 94.90625 C 144.417969 95.085938 143.523438 95.308594 142.636719 95.578125 C 141.753906 95.847656 140.882812 96.160156 140.027344 96.511719 C 139.175781 96.867188 138.339844 97.261719 137.523438 97.699219 C 136.707031 98.132812 135.914062 98.609375 135.144531 99.121094 C 134.378906 99.636719 133.636719 100.1875 132.921875 100.773438 C 132.207031 101.359375 131.519531 101.980469 130.867188 102.636719 C 130.214844 103.289062 129.59375 103.972656 129.003906 104.691406 C 128.417969 105.40625 127.867188 106.148438 127.355469 106.917969 C 126.839844 107.683594 126.367188 108.476562 125.929688 109.292969 C 125.492188 110.109375 125.097656 110.945312 124.746094 111.800781 C 124.390625 112.652344 124.078125 113.523438 123.8125 114.410156 C 123.542969 115.292969 123.320312 116.191406 123.136719 117.097656 C 122.957031 118.003906 122.820312 118.917969 122.730469 119.839844 C 122.640625 120.761719 122.59375 121.683594 122.59375 122.609375 C 122.597656 123.535156 122.644531 124.457031 122.734375 125.375 C 122.824219 126.296875 122.960938 127.210938 123.144531 128.117188 C 123.324219 129.023438 123.550781 129.921875 123.820312 130.804688 C 124.085938 131.691406 124.398438 132.558594 124.753906 133.414062 C 125.109375 134.269531 125.503906 135.101562 125.9375 135.917969 C 126.375 136.734375 126.851562 137.527344 127.363281 138.292969 C 127.878906 139.0625 128.429688 139.804688 129.015625 140.519531 C 129.601562 141.234375 130.222656 141.917969 130.875 142.574219 C 131.53125 143.226562 132.214844 143.847656 132.929688 144.433594 C 133.644531 145.019531 134.386719 145.570312 135.152344 146.085938 C 135.921875 146.601562 136.714844 147.074219 137.53125 147.511719 C 138.34375 147.949219 139.179688 148.34375 140.035156 148.695312 C 140.886719 149.050781 141.757812 149.363281 142.640625 149.632812 C 143.527344 149.902344 144.421875 150.125 145.328125 150.308594 C 146.234375 150.488281 147.148438 150.625 148.070312 150.71875 C 148.988281 150.808594 149.910156 150.855469 150.835938 150.855469 Z M 150.835938 113.195312 C 151.453125 113.195312 152.066406 113.253906 152.671875 113.375 C 153.277344 113.496094 153.867188 113.671875 154.4375 113.910156 C 155.007812 114.148438 155.550781 114.4375 156.066406 114.78125 C 156.578125 115.125 157.054688 115.515625 157.492188 115.953125 C 157.929688 116.386719 158.320312 116.863281 158.664062 117.378906 C 159.007812 117.890625 159.296875 118.433594 159.53125 119.003906 C 159.769531 119.578125 159.949219 120.164062 160.070312 120.773438 C 160.1875 121.378906 160.25 121.992188 160.25 122.609375 C 160.25 123.226562 160.1875 123.839844 160.070312 124.445312 C 159.949219 125.050781 159.769531 125.640625 159.53125 126.210938 C 159.296875 126.785156 159.007812 127.324219 158.664062 127.839844 C 158.320312 128.355469 157.929688 128.828125 157.492188 129.265625 C 157.054688 129.703125 156.578125 130.09375 156.066406 130.4375 C 155.550781 130.78125 155.007812 131.070312 154.4375 131.308594 C 153.867188 131.542969 153.277344 131.722656 152.671875 131.84375 C 152.066406 131.964844 151.453125 132.023438 150.835938 132.023438 C 150.21875 132.023438 149.605469 131.964844 149 131.84375 C 148.394531 131.722656 147.804688 131.542969 147.234375 131.308594 C 146.664062 131.070312 146.121094 130.78125 145.605469 130.4375 C 145.09375 130.09375 144.617188 129.703125 144.179688 129.265625 C 143.742188 128.828125 143.351562 128.355469 143.007812 127.839844 C 142.664062 127.324219 142.375 126.785156 142.140625 126.210938 C 141.902344 125.640625 141.722656 125.050781 141.601562 124.445312 C 141.484375 123.839844 141.421875 123.226562 141.421875 122.609375 C 141.421875 121.992188 141.484375 121.378906 141.605469 120.773438 C 141.726562 120.167969 141.902344 119.578125 142.140625 119.007812 C 142.378906 118.4375 142.667969 117.894531 143.011719 117.378906 C 143.355469 116.867188 143.746094 116.390625 144.179688 115.953125 C 144.617188 115.515625 145.09375 115.125 145.609375 114.78125 C 146.121094 114.4375 146.664062 114.148438 147.234375 113.910156 C 147.804688 113.675781 148.394531 113.496094 149 113.375 C 149.605469 113.253906 150.21875 113.195312 150.835938 113.195312 Z M 150.835938 113.195312 " fill-opacity="1" fill-rule="nonzero"/><path fill="#fb653e" d="M 226.144531 150.855469 C 227.070312 150.855469 227.992188 150.808594 228.910156 150.71875 C 229.832031 150.628906 230.746094 150.492188 231.652344 150.3125 C 232.558594 150.132812 233.457031 149.90625 234.339844 149.640625 C 235.226562 149.371094 236.097656 149.058594 236.949219 148.707031 C 237.804688 148.351562 238.640625 147.957031 239.457031 147.519531 C 240.273438 147.085938 241.0625 146.609375 241.832031 146.09375 C 242.601562 145.582031 243.34375 145.03125 244.058594 144.445312 C 244.773438 143.855469 245.457031 143.238281 246.113281 142.582031 C 246.765625 141.929688 247.386719 141.242188 247.972656 140.527344 C 248.5625 139.8125 249.109375 139.070312 249.625 138.300781 C 250.140625 137.53125 250.613281 136.742188 251.050781 135.925781 C 251.484375 135.109375 251.878906 134.273438 252.234375 133.417969 C 252.589844 132.5625 252.898438 131.695312 253.167969 130.808594 C 253.4375 129.921875 253.660156 129.027344 253.839844 128.121094 C 254.023438 127.210938 254.15625 126.296875 254.25 125.378906 C 254.339844 124.457031 254.382812 123.535156 254.382812 122.609375 C 254.382812 121.683594 254.339844 120.761719 254.25 119.839844 C 254.15625 118.917969 254.023438 118.003906 253.839844 117.097656 C 253.660156 116.191406 253.4375 115.292969 253.167969 114.410156 C 252.898438 113.523438 252.589844 112.652344 252.234375 111.800781 C 251.878906 110.945312 251.484375 110.109375 251.050781 109.292969 C 250.613281 108.476562 250.140625 107.683594 249.625 106.917969 C 249.109375 106.148438 248.5625 105.40625 247.972656 104.691406 C 247.386719 103.972656 246.765625 103.289062 246.113281 102.636719 C 245.457031 101.980469 244.773438 101.359375 244.058594 100.773438 C 243.34375 100.1875 242.601562 99.636719 241.832031 99.121094 C 241.0625 98.609375 240.273438 98.132812 239.457031 97.699219 C 238.640625 97.261719 237.804688 96.867188 236.949219 96.511719 C 236.097656 96.160156 235.226562 95.847656 234.339844 95.578125 C 233.457031 95.308594 232.558594 95.085938 231.652344 94.90625 C 230.746094 94.726562 229.832031 94.589844 228.910156 94.5 C 227.992188 94.40625 227.070312 94.363281 226.144531 94.363281 C 225.21875 94.363281 224.296875 94.40625 223.375 94.5 C 222.457031 94.589844 221.542969 94.726562 220.632812 94.90625 C 219.726562 95.085938 218.832031 95.308594 217.945312 95.578125 C 217.0625 95.847656 216.191406 96.160156 215.335938 96.511719 C 214.480469 96.867188 213.648438 97.261719 212.832031 97.699219 C 212.015625 98.132812 211.222656 98.609375 210.453125 99.121094 C 209.683594 99.636719 208.941406 100.1875 208.226562 100.773438 C 207.511719 101.359375 206.828125 101.980469 206.175781 102.636719 C 205.519531 103.289062 204.902344 103.972656 204.3125 104.691406 C 203.726562 105.40625 203.175781 106.148438 202.664062 106.917969 C 202.148438 107.683594 201.675781 108.476562 201.238281 109.292969 C 200.800781 110.109375 200.40625 110.945312 200.054688 111.800781 C 199.699219 112.652344 199.386719 113.523438 199.121094 114.410156 C 198.851562 115.292969 198.625 116.191406 198.445312 117.097656 C 198.265625 118.003906 198.128906 118.917969 198.039062 119.839844 C 197.949219 120.761719 197.902344 121.683594 197.902344 122.609375 C 197.90625 123.535156 197.949219 124.457031 198.042969 125.375 C 198.132812 126.296875 198.269531 127.210938 198.449219 128.117188 C 198.632812 129.023438 198.855469 129.921875 199.125 130.804688 C 199.394531 131.691406 199.707031 132.558594 200.0625 133.414062 C 200.414062 134.269531 200.8125 135.101562 201.246094 135.917969 C 201.683594 136.734375 202.160156 137.527344 202.671875 138.292969 C 203.1875 139.0625 203.738281 139.804688 204.324219 140.519531 C 204.910156 141.234375 205.53125 141.917969 206.183594 142.574219 C 206.835938 143.226562 207.523438 143.847656 208.238281 144.433594 C 208.953125 145.019531 209.691406 145.570312 210.460938 146.085938 C 211.230469 146.601562 212.023438 147.074219 212.835938 147.511719 C 213.652344 147.949219 214.488281 148.34375 215.339844 148.695312 C 216.195312 149.050781 217.066406 149.363281 217.949219 149.632812 C 218.835938 149.902344 219.730469 150.125 220.636719 150.308594 C 221.542969 150.488281 222.457031 150.625 223.375 150.71875 C 224.296875 150.808594 225.21875 150.855469 226.144531 150.855469 Z M 226.144531 113.195312 C 226.761719 113.195312 227.375 113.253906 227.980469 113.375 C 228.585938 113.496094 229.175781 113.671875 229.746094 113.910156 C 230.316406 114.148438 230.859375 114.4375 231.375 114.78125 C 231.886719 115.125 232.363281 115.515625 232.800781 115.953125 C 233.238281 116.386719 233.628906 116.863281 233.972656 117.378906 C 234.3125 117.890625 234.605469 118.433594 234.839844 119.003906 C 235.078125 119.578125 235.253906 120.164062 235.375 120.773438 C 235.496094 121.378906 235.558594 121.992188 235.558594 122.609375 C 235.558594 123.226562 235.496094 123.839844 235.375 124.445312 C 235.253906 125.050781 235.078125 125.640625 234.839844 126.210938 C 234.605469 126.785156 234.3125 127.324219 233.972656 127.839844 C 233.628906 128.355469 233.238281 128.828125 232.800781 129.265625 C 232.363281 129.703125 231.886719 130.09375 231.375 130.4375 C 230.859375 130.78125 230.316406 131.070312 229.746094 131.308594 C 229.175781 131.542969 228.585938 131.722656 227.980469 131.84375 C 227.375 131.964844 226.761719 132.023438 226.144531 132.023438 C 225.527344 132.023438 224.914062 131.964844 224.308594 131.84375 C 223.699219 131.722656 223.113281 131.542969 222.542969 131.308594 C 221.96875 131.070312 221.429688 130.78125 220.914062 130.4375 C 220.398438 130.09375 219.925781 129.703125 219.488281 129.265625 C 219.050781 128.828125 218.660156 128.355469 218.316406 127.839844 C 217.972656 127.324219 217.683594 126.785156 217.445312 126.210938 C 217.210938 125.640625 217.03125 125.050781 216.910156 124.445312 C 216.789062 123.839844 216.730469 123.226562 216.730469 122.609375 C 216.730469 121.992188 216.792969 121.378906 216.914062 120.773438 C 217.03125 120.167969 217.210938 119.578125 217.449219 119.007812 C 217.683594 118.4375 217.976562 117.894531 218.320312 117.378906 C 218.664062 116.867188 219.050781 116.390625 219.488281 115.953125 C 219.925781 115.515625 220.402344 115.125 220.914062 114.78125 C 221.429688 114.4375 221.972656 114.148438 222.542969 113.910156 C 223.113281 113.675781 223.703125 113.496094 224.308594 113.375 C 224.914062 113.253906 225.527344 113.195312 226.144531 113.195312 Z M 226.144531 113.195312 " fill-opacity="1" fill-rule="nonzero"/><path fill="#fb653e" d="M 461.480469 132.023438 L 743.886719 132.023438 C 744.503906 132.023438 745.117188 131.964844 745.722656 131.84375 C 746.328125 131.722656 746.917969 131.542969 747.488281 131.308594 C 748.058594 131.070312 748.601562 130.78125 749.113281 130.4375 C 749.628906 130.09375 750.105469 129.703125 750.542969 129.265625 C 750.980469 128.828125 751.367188 128.355469 751.710938 127.839844 C 752.054688 127.324219 752.34375 126.785156 752.582031 126.210938 C 752.820312 125.640625 752.996094 125.050781 753.117188 124.445312 C 753.238281 123.839844 753.300781 123.226562 753.300781 122.609375 C 753.300781 121.992188 753.238281 121.378906 753.117188 120.773438 C 752.996094 120.164062 752.820312 119.578125 752.582031 119.003906 C 752.34375 118.433594 752.054688 117.890625 751.710938 117.378906 C 751.367188 116.863281 750.980469 116.386719 750.542969 115.953125 C 750.105469 115.515625 749.628906 115.125 749.113281 114.78125 C 748.601562 114.4375 748.058594 114.148438 747.488281 113.910156 C 746.917969 113.671875 746.328125 113.496094 745.722656 113.375 C 745.117188 113.253906 744.503906 113.195312 743.886719 113.195312 L 461.480469 113.195312 C 460.863281 113.195312 460.25 113.253906 459.644531 113.375 C 459.039062 113.496094 458.449219 113.671875 457.878906 113.910156 C 457.308594 114.148438 456.765625 114.4375 456.25 114.78125 C 455.738281 115.125 455.261719 115.515625 454.824219 115.953125 C 454.386719 116.386719 453.996094 116.863281 453.652344 117.378906 C 453.308594 117.890625 453.019531 118.433594 452.785156 119.003906 C 452.546875 119.578125 452.367188 120.164062 452.25 120.773438 C 452.128906 121.378906 452.066406 121.992188 452.066406 122.609375 C 452.066406 123.226562 452.128906 123.839844 452.25 124.445312 C 452.367188 125.050781 452.546875 125.640625 452.785156 126.210938 C 453.019531 126.785156 453.308594 127.324219 453.652344 127.839844 C 453.996094 128.355469 454.386719 128.828125 454.824219 129.265625 C 455.261719 129.703125 455.738281 130.09375 456.25 130.4375 C 456.765625 130.78125 457.308594 131.070312 457.878906 131.308594 C 458.449219 131.542969 459.039062 131.722656 459.644531 131.84375 C 460.25 131.964844 460.863281 132.023438 461.480469 132.023438 Z M 461.480469 132.023438 " fill-opacity="1" fill-rule="nonzero"/><path fill="#fb653e" d="M 512.445312 442.738281 L 603.152344 352.011719 C 604.605469 350.5625 605.984375 349.042969 607.289062 347.457031 C 608.59375 345.867188 609.820312 344.222656 610.960938 342.515625 C 612.105469 340.808594 613.160156 339.050781 614.132812 337.238281 C 615.101562 335.429688 615.980469 333.574219 616.769531 331.675781 C 617.554688 329.78125 618.25 327.847656 618.847656 325.882812 C 619.445312 323.917969 619.945312 321.925781 620.347656 319.914062 C 620.75 317.898438 621.050781 315.867188 621.253906 313.824219 C 621.457031 311.78125 621.558594 309.730469 621.5625 307.675781 C 621.5625 305.621094 621.460938 303.574219 621.261719 301.527344 C 621.0625 299.484375 620.761719 297.453125 620.363281 295.4375 C 619.960938 293.421875 619.464844 291.433594 618.871094 289.464844 C 618.273438 287.5 617.582031 285.566406 616.796875 283.667969 C 616.011719 281.773438 615.136719 279.917969 614.167969 278.105469 C 613.199219 276.292969 612.144531 274.53125 611.003906 272.824219 C 609.863281 271.117188 608.644531 269.46875 607.339844 267.878906 C 606.039062 266.292969 604.660156 264.769531 603.207031 263.316406 C 601.753906 261.867188 600.234375 260.488281 598.648438 259.183594 C 597.058594 257.882812 595.410156 256.660156 593.703125 255.519531 C 591.996094 254.375 590.234375 253.324219 588.425781 252.355469 C 586.613281 251.386719 584.757812 250.507812 582.859375 249.722656 C 580.960938 248.9375 579.03125 248.246094 577.0625 247.652344 C 575.097656 247.054688 573.109375 246.558594 571.09375 246.160156 C 569.078125 245.757812 567.050781 245.460938 565.003906 245.257812 C 562.960938 245.058594 560.914062 244.960938 558.859375 244.960938 C 556.804688 244.960938 554.753906 245.0625 552.710938 245.265625 C 550.667969 245.46875 548.640625 245.773438 546.625 246.175781 C 544.609375 246.578125 542.621094 247.078125 540.65625 247.675781 C 538.691406 248.273438 536.761719 248.964844 534.863281 249.753906 C 532.964844 250.542969 531.113281 251.421875 529.300781 252.390625 C 527.492188 253.363281 525.734375 254.417969 524.027344 255.5625 C 522.320312 256.703125 520.675781 257.929688 519.089844 259.234375 C 517.5 260.539062 515.984375 261.917969 514.53125 263.375 L 423.828125 354.097656 L 308.105469 238.355469 C 307.671875 237.917969 307.195312 237.527344 306.679688 237.183594 C 306.167969 236.839844 305.625 236.550781 305.054688 236.3125 C 304.484375 236.074219 303.894531 235.898438 303.289062 235.777344 C 302.683594 235.65625 302.070312 235.597656 301.453125 235.597656 C 300.832031 235.597656 300.222656 235.65625 299.613281 235.777344 C 299.007812 235.898438 298.421875 236.074219 297.847656 236.3125 C 297.277344 236.550781 296.734375 236.839844 296.222656 237.183594 C 295.707031 237.527344 295.234375 237.917969 294.796875 238.355469 L 181.835938 351.339844 C 181.398438 351.777344 181.007812 352.253906 180.664062 352.765625 C 180.320312 353.28125 180.03125 353.824219 179.792969 354.394531 C 179.554688 354.964844 179.378906 355.554688 179.257812 356.160156 C 179.136719 356.765625 179.074219 357.378906 179.074219 357.996094 C 179.074219 358.617188 179.136719 359.226562 179.257812 359.835938 C 179.378906 360.441406 179.554688 361.03125 179.792969 361.601562 C 180.03125 362.171875 180.320312 362.714844 180.664062 363.226562 C 181.007812 363.742188 181.398438 364.21875 181.835938 364.65625 L 297.554688 480.398438 L 210.074219 567.898438 C 208.8125 569.285156 207.953125 570.886719 207.5 572.707031 L 188.671875 666.863281 C 188.597656 667.242188 188.546875 667.621094 188.515625 668.007812 C 188.488281 668.394531 188.484375 668.777344 188.5 669.164062 C 188.519531 669.550781 188.5625 669.933594 188.628906 670.3125 C 188.695312 670.691406 188.78125 671.066406 188.894531 671.4375 C 189.007812 671.808594 189.140625 672.167969 189.296875 672.523438 C 189.453125 672.875 189.628906 673.21875 189.828125 673.546875 C 190.027344 673.878906 190.246094 674.195312 190.480469 674.5 C 190.71875 674.804688 190.976562 675.09375 191.246094 675.367188 C 191.519531 675.640625 191.808594 675.894531 192.113281 676.132812 C 192.417969 676.371094 192.734375 676.589844 193.066406 676.789062 C 193.398438 676.984375 193.738281 677.164062 194.09375 677.320312 C 194.445312 677.476562 194.808594 677.609375 195.175781 677.722656 C 195.546875 677.832031 195.921875 677.921875 196.300781 677.988281 C 196.679688 678.054688 197.066406 678.09375 197.449219 678.113281 C 197.835938 678.132812 198.222656 678.128906 198.605469 678.097656 C 198.992188 678.070312 199.371094 678.019531 199.75 677.941406 L 293.886719 659.109375 C 295.703125 658.65625 297.308594 657.796875 298.695312 656.535156 L 386.171875 569.039062 L 501.894531 684.78125 C 502.328125 685.21875 502.804688 685.609375 503.320312 685.953125 C 503.832031 686.296875 504.375 686.585938 504.945312 686.824219 C 505.515625 687.0625 506.105469 687.238281 506.710938 687.359375 C 507.316406 687.480469 507.929688 687.542969 508.546875 687.542969 C 509.167969 687.542969 509.777344 687.480469 510.386719 687.359375 C 510.992188 687.238281 511.578125 687.0625 512.152344 686.824219 C 512.722656 686.585938 513.265625 686.296875 513.777344 685.953125 C 514.292969 685.609375 514.765625 685.21875 515.203125 684.78125 L 628.164062 571.796875 C 628.601562 571.359375 628.992188 570.882812 629.335938 570.371094 C 629.679688 569.855469 629.96875 569.3125 630.207031 568.742188 C 630.445312 568.171875 630.621094 567.582031 630.742188 566.976562 C 630.863281 566.371094 630.925781 565.757812 630.925781 565.140625 C 630.925781 564.519531 630.863281 563.910156 630.742188 563.300781 C 630.621094 562.695312 630.445312 562.105469 630.207031 561.535156 C 629.96875 560.964844 629.679688 560.421875 629.335938 559.910156 C 628.992188 559.394531 628.601562 558.917969 628.164062 558.480469 Z M 292.039062 636.566406 L 230.042969 574.554688 L 499.136719 305.402344 L 561.132812 367.414062 Z M 527.84375 276.6875 C 528.859375 275.664062 529.917969 274.695312 531.027344 273.777344 C 532.136719 272.859375 533.289062 272 534.484375 271.195312 C 535.675781 270.390625 536.910156 269.648438 538.175781 268.964844 C 539.441406 268.28125 540.742188 267.664062 542.070312 267.109375 C 543.398438 266.554688 544.75 266.066406 546.125 265.644531 C 547.5 265.222656 548.894531 264.871094 550.304688 264.585938 C 551.71875 264.300781 553.140625 264.085938 554.570312 263.941406 C 556.003906 263.796875 557.4375 263.722656 558.878906 263.722656 C 560.316406 263.71875 561.753906 263.785156 563.1875 263.925781 C 564.621094 264.0625 566.042969 264.273438 567.453125 264.550781 C 568.867188 264.828125 570.261719 265.175781 571.640625 265.59375 C 573.015625 266.011719 574.371094 266.492188 575.703125 267.042969 C 577.03125 267.59375 578.332031 268.207031 579.601562 268.882812 C 580.871094 269.5625 582.105469 270.300781 583.300781 271.097656 C 584.5 271.898438 585.65625 272.753906 586.769531 273.667969 C 587.878906 274.582031 588.945312 275.546875 589.964844 276.5625 C 590.980469 277.582031 591.945312 278.648438 592.859375 279.761719 C 593.773438 280.875 594.628906 282.03125 595.429688 283.226562 C 596.226562 284.425781 596.964844 285.65625 597.644531 286.929688 C 598.320312 288.199219 598.933594 289.5 599.484375 290.828125 C 600.03125 292.160156 600.515625 293.515625 600.933594 294.894531 C 601.347656 296.269531 601.695312 297.667969 601.972656 299.078125 C 602.253906 300.492188 602.460938 301.914062 602.601562 303.347656 C 602.738281 304.78125 602.808594 306.214844 602.804688 307.65625 C 602.800781 309.097656 602.726562 310.53125 602.582031 311.964844 C 602.4375 313.398438 602.226562 314.820312 601.941406 316.230469 C 601.65625 317.640625 601.304688 319.035156 600.882812 320.414062 C 600.460938 321.789062 599.972656 323.140625 599.417969 324.46875 C 598.863281 325.796875 598.242188 327.097656 597.5625 328.363281 C 596.878906 329.632812 596.136719 330.863281 595.332031 332.054688 C 594.527344 333.25 593.667969 334.402344 592.75 335.511719 C 591.832031 336.621094 590.863281 337.683594 589.839844 338.699219 L 574.441406 354.097656 L 512.445312 292.089844 Z M 301.453125 258.324219 L 335.207031 292.089844 L 318.328125 308.972656 C 317.898438 309.410156 317.511719 309.886719 317.171875 310.398438 C 316.832031 310.914062 316.546875 311.453125 316.316406 312.023438 C 316.082031 312.59375 315.90625 313.179688 315.789062 313.785156 C 315.671875 314.390625 315.613281 315 315.617188 315.617188 C 315.617188 316.230469 315.679688 316.839844 315.800781 317.445312 C 315.921875 318.046875 316.101562 318.632812 316.335938 319.203125 C 316.574219 319.769531 316.863281 320.308594 317.207031 320.820312 C 317.546875 321.332031 317.9375 321.808594 318.371094 322.242188 C 318.808594 322.675781 319.28125 323.066406 319.792969 323.410156 C 320.304688 323.75 320.84375 324.039062 321.410156 324.277344 C 321.980469 324.515625 322.566406 324.691406 323.167969 324.8125 C 323.773438 324.9375 324.382812 324.996094 324.996094 325 C 325.613281 325 326.222656 324.945312 326.828125 324.824219 C 327.429688 324.707031 328.019531 324.53125 328.589844 324.300781 C 329.15625 324.066406 329.699219 323.78125 330.214844 323.441406 C 330.726562 323.101562 331.203125 322.71875 331.640625 322.285156 L 348.519531 305.402344 L 372.863281 329.75 L 355.984375 346.632812 C 355.550781 347.070312 355.164062 347.546875 354.824219 348.0625 C 354.488281 348.574219 354.199219 349.117188 353.96875 349.6875 C 353.734375 350.257812 353.558594 350.84375 353.441406 351.449219 C 353.324219 352.050781 353.265625 352.664062 353.269531 353.277344 C 353.269531 353.894531 353.332031 354.503906 353.453125 355.105469 C 353.574219 355.710938 353.753906 356.296875 353.988281 356.863281 C 354.226562 357.433594 354.515625 357.972656 354.859375 358.484375 C 355.199219 358.996094 355.589844 359.46875 356.023438 359.90625 C 356.460938 360.339844 356.933594 360.730469 357.445312 361.074219 C 357.957031 361.414062 358.496094 361.703125 359.066406 361.941406 C 359.632812 362.175781 360.21875 362.355469 360.824219 362.476562 C 361.425781 362.597656 362.035156 362.660156 362.652344 362.664062 C 363.265625 362.664062 363.875 362.605469 364.480469 362.488281 C 365.085938 362.371094 365.671875 362.195312 366.242188 361.964844 C 366.8125 361.730469 367.355469 361.445312 367.867188 361.105469 C 368.382812 360.765625 368.855469 360.378906 369.292969 359.945312 L 386.171875 343.066406 L 410.515625 367.414062 L 339.105469 438.839844 L 230.042969 329.75 Z M 201.800781 357.996094 L 216.730469 343.066406 L 325.792969 452.152344 L 310.863281 467.085938 Z M 222.511719 593.648438 L 272.949219 644.097656 L 209.898438 656.710938 Z M 508.546875 664.8125 L 399.484375 555.722656 L 414.414062 540.792969 L 523.476562 649.878906 Z M 536.789062 636.566406 L 427.726562 527.476562 L 499.136719 456.050781 L 523.476562 480.398438 L 506.597656 497.28125 C 506.167969 497.71875 505.78125 498.195312 505.441406 498.710938 C 505.101562 499.222656 504.816406 499.765625 504.585938 500.335938 C 504.351562 500.90625 504.175781 501.492188 504.058594 502.097656 C 503.941406 502.699219 503.882812 503.308594 503.886719 503.925781 C 503.886719 504.542969 503.949219 505.152344 504.070312 505.753906 C 504.191406 506.359375 504.371094 506.945312 504.605469 507.511719 C 504.84375 508.082031 505.132812 508.621094 505.476562 509.132812 C 505.816406 509.644531 506.207031 510.117188 506.640625 510.554688 C 507.078125 510.988281 507.550781 511.378906 508.0625 511.71875 C 508.574219 512.0625 509.113281 512.351562 509.683594 512.589844 C 510.25 512.824219 510.835938 513.003906 511.4375 513.125 C 512.042969 513.246094 512.652344 513.308594 513.265625 513.308594 C 513.882812 513.3125 514.492188 513.253906 515.097656 513.136719 C 515.699219 513.019531 516.289062 512.84375 516.859375 512.609375 C 517.425781 512.378906 517.96875 512.09375 518.484375 511.753906 C 518.996094 511.414062 519.472656 511.027344 519.910156 510.59375 L 536.789062 493.714844 L 561.132812 518.0625 L 544.253906 534.945312 C 543.820312 535.382812 543.433594 535.859375 543.09375 536.371094 C 542.757812 536.886719 542.46875 537.425781 542.238281 537.996094 C 542.003906 538.566406 541.828125 539.15625 541.710938 539.757812 C 541.59375 540.363281 541.535156 540.972656 541.539062 541.589844 C 541.539062 542.203125 541.601562 542.8125 541.722656 543.417969 C 541.84375 544.019531 542.023438 544.605469 542.257812 545.175781 C 542.496094 545.746094 542.785156 546.285156 543.128906 546.796875 C 543.46875 547.308594 543.859375 547.78125 544.292969 548.214844 C 544.730469 548.652344 545.203125 549.039062 545.714844 549.382812 C 546.226562 549.726562 546.765625 550.015625 547.335938 550.25 C 547.902344 550.488281 548.488281 550.667969 549.09375 550.789062 C 549.695312 550.910156 550.304688 550.972656 550.921875 550.972656 C 551.535156 550.976562 552.148438 550.917969 552.75 550.800781 C 553.355469 550.683594 553.941406 550.507812 554.511719 550.273438 C 555.082031 550.039062 555.625 549.753906 556.136719 549.414062 C 556.652344 549.074219 557.125 548.691406 557.5625 548.257812 L 574.441406 531.375 L 608.199219 565.140625 Z M 536.789062 636.566406 " fill-opacity="1" fill-rule="nonzero"/></svg>