<svg xmlns="http://www.w3.org/2000/svg" xmlns:xlink="http://www.w3.org/1999/xlink" width="1080" zoomAndPan="magnify" viewBox="0 0 810 809.999993" height="1080" preserveAspectRatio="xMidYMid meet" version="1.0"><defs><clipPath id="8af51fcd0e"><path d="M 0 8.101562 L 810 8.101562 L 810 801.601562 L 0 801.601562 Z M 0 8.101562 " clip-rule="nonzero"/></clipPath></defs><path fill="#fb653e" d="M 304.648438 308.25 C 247.441406 308.25 200.980469 354.695312 200.980469 411.722656 C 200.980469 468.75 247.441406 515.195312 304.648438 515.195312 C 361.855469 515.195312 408.320312 468.75 408.320312 411.722656 C 408.320312 354.695312 361.855469 308.25 304.648438 308.25 Z M 304.648438 483.601562 C 264.824219 483.601562 232.429688 451.375 232.429688 411.722656 C 232.429688 372.070312 264.824219 339.84375 304.648438 339.84375 C 344.472656 339.84375 376.710938 372.070312 376.710938 411.722656 C 376.871094 451.375 344.472656 483.601562 304.648438 483.601562 Z M 304.648438 483.601562 " fill-opacity="1" fill-rule="nonzero"/><g clip-path="url(#8af51fcd0e)"><path fill="#fb653e" d="M 748.085938 8.101562 L 457.308594 8.101562 C 423.332031 8.101562 395.675781 35.746094 395.675781 69.550781 L 395.675781 207.777344 C 366.28125 198.617188 335.78125 194.035156 304.648438 194.035156 C 136.820312 194.035156 0.28125 330.207031 0.28125 497.660156 C 0.28125 594.8125 46.269531 681.539062 117.699219 737.148438 C 118.171875 737.621094 118.648438 738.09375 119.277344 738.570312 C 168.585938 776.324219 226.742188 797.808594 288.371094 800.96875 C 299.277344 801.601562 310.179688 801.601562 320.925781 800.96875 C 382.558594 797.808594 440.714844 776.324219 490.019531 738.570312 C 490.652344 738.09375 491.128906 737.621094 491.601562 737.148438 C 563.03125 681.539062 609.019531 594.8125 609.019531 497.660156 C 609.019531 448.6875 597.167969 400.503906 574.566406 357.378906 L 607.4375 331.945312 L 747.929688 331.945312 C 781.90625 331.945312 809.5625 304.457031 809.5625 270.492188 L 809.5625 69.550781 C 809.71875 35.746094 782.0625 8.101562 748.085938 8.101562 Z M 464.734375 718.03125 C 423.332031 748.046875 373.394531 766.6875 319.1875 769.53125 C 309.550781 770.003906 299.910156 770.003906 290.269531 769.53125 C 236.0625 766.6875 185.96875 748.046875 144.5625 718.03125 L 144.5625 691.964844 C 144.5625 624.511719 199.558594 569.695312 267.195312 569.695312 L 341.945312 569.695312 C 409.582031 569.695312 464.578125 624.511719 464.578125 691.964844 L 464.578125 718.03125 Z M 577.570312 497.660156 C 577.570312 573.328125 546.4375 641.890625 496.34375 691.175781 C 496.027344 606.660156 426.964844 537.941406 342.101562 537.941406 L 267.355469 537.941406 C 182.492188 537.941406 113.429688 606.660156 113.117188 691.175781 C 63.019531 641.730469 31.886719 573.328125 31.886719 497.660156 C 31.886719 347.585938 154.363281 225.472656 304.808594 225.472656 C 336.097656 225.472656 366.597656 230.683594 395.835938 240.953125 L 395.835938 270.492188 C 395.835938 301.929688 419.539062 327.839844 450.039062 331.472656 L 450.039062 398.609375 C 450.039062 409.824219 457.152344 421.832031 466.632812 426.414062 C 469.636719 427.835938 472.953125 428.625 476.113281 428.625 C 480.539062 428.625 484.964844 427.203125 488.757812 424.203125 L 549.597656 376.96875 C 567.929688 414.40625 577.570312 455.796875 577.570312 497.660156 Z M 778.113281 270.652344 C 778.113281 287.082031 764.679688 300.507812 748.085938 300.507812 L 602.066406 300.507812 C 598.589844 300.507812 595.113281 301.613281 592.425781 303.824219 L 481.488281 390.078125 L 481.488281 316.304688 C 481.488281 307.617188 474.375 300.507812 465.683594 300.507812 L 457.152344 300.507812 C 440.558594 300.507812 427.125 287.082031 427.125 270.652344 L 427.125 69.550781 C 427.125 53.121094 440.558594 39.695312 457.152344 39.695312 L 748.085938 39.695312 C 764.679688 39.695312 778.113281 53.121094 778.113281 69.550781 Z M 778.113281 270.652344 " fill-opacity="1" fill-rule="nonzero"/></g><path fill="#fb653e" d="M 645.050781 81.082031 C 630.667969 81.082031 615.65625 86.453125 602.699219 95.933594 C 589.738281 86.453125 574.726562 81.082031 560.34375 81.082031 C 545.332031 81.082031 531.898438 86.769531 521.785156 97.671875 C 496.972656 123.894531 496.972656 166.707031 521.785156 192.929688 L 569.828125 243.953125 C 570.144531 244.269531 570.460938 244.585938 570.773438 244.902344 C 581.519531 254.378906 592.109375 259.121094 602.855469 259.121094 C 613.761719 259.121094 624.507812 254.222656 635.09375 244.269531 C 635.410156 243.953125 635.566406 243.796875 635.882812 243.480469 L 683.609375 192.769531 C 708.421875 166.546875 708.421875 123.738281 683.609375 97.511719 C 673.496094 86.929688 660.0625 81.082031 645.050781 81.082031 Z M 660.539062 171.285156 L 613.128906 221.523438 C 604.59375 229.421875 600.960938 229.421875 592.109375 221.679688 L 544.542969 171.285156 C 531.265625 157.226562 531.265625 133.53125 544.542969 119.3125 C 548.808594 114.890625 553.867188 112.679688 560.1875 112.679688 C 570.460938 112.679688 582.152344 118.523438 591.003906 127.84375 C 594.003906 131.003906 598.113281 132.742188 602.539062 132.742188 C 606.964844 132.742188 611.074219 131.003906 614.074219 127.84375 C 622.925781 118.523438 634.777344 112.679688 644.890625 112.679688 C 651.214844 112.679688 656.269531 114.890625 660.378906 119.3125 C 673.96875 133.371094 673.96875 157.226562 660.539062 171.285156 Z M 660.539062 171.285156 " fill-opacity="1" fill-rule="nonzero"/></svg>