<svg xmlns="http://www.w3.org/2000/svg" xmlns:xlink="http://www.w3.org/1999/xlink" width="1080" zoomAndPan="magnify" viewBox="0 0 810 809.999993" height="1080" preserveAspectRatio="xMidYMid meet" version="1.0"><path fill="#fb653e" d="M 576.285156 165.085938 C 572.867188 165.085938 570.101562 162.308594 570.101562 158.898438 C 570.101562 155.476562 572.867188 152.714844 576.285156 152.714844 L 749.039062 152.714844 C 753.789062 152.714844 758.089844 154.652344 761.21875 157.808594 C 764.304688 160.9375 766.203125 165.238281 766.203125 170.015625 L 766.203125 549.613281 C 766.203125 554.332031 764.289062 558.648438 761.191406 561.789062 C 758.074219 564.945312 753.773438 566.917969 749.039062 566.917969 L 61.210938 566.917969 C 56.460938 566.917969 52.132812 564.960938 49.003906 561.820312 C 45.863281 558.691406 43.90625 554.359375 43.90625 549.613281 L 43.90625 178.550781 C 43.90625 171.425781 46.839844 164.976562 51.546875 160.296875 C 56.253906 155.605469 62.746094 152.714844 69.871094 152.714844 L 244.1875 152.714844 C 247.59375 152.714844 250.375 155.476562 250.375 158.898438 C 250.375 162.308594 247.59375 165.085938 244.1875 165.085938 L 69.871094 165.085938 C 66.113281 165.085938 62.707031 166.59375 60.246094 169.039062 C 57.804688 171.46875 56.28125 174.820312 56.28125 178.550781 L 56.28125 549.613281 C 56.28125 550.941406 56.839844 552.167969 57.746094 553.078125 C 58.65625 553.984375 59.882812 554.542969 61.210938 554.542969 L 749.039062 554.542969 C 750.351562 554.542969 751.539062 554 752.390625 553.144531 C 753.285156 552.238281 753.84375 550.996094 753.84375 549.613281 L 753.84375 170.015625 C 753.84375 168.589844 753.300781 167.347656 752.433594 166.46875 C 751.582031 165.601562 750.382812 165.085938 749.039062 165.085938 Z M 446.339844 417.109375 C 447.582031 412.148438 452.609375 409.132812 457.566406 410.375 C 462.539062 411.605469 465.554688 416.648438 464.3125 421.605469 L 445.261719 496.613281 C 444.019531 501.570312 438.992188 504.601562 434.035156 503.359375 C 429.0625 502.117188 426.046875 497.089844 427.289062 492.117188 Z M 392.277344 449.578125 C 392.277344 444.453125 396.425781 440.304688 401.550781 440.304688 C 406.675781 440.304688 410.824219 444.453125 410.824219 449.578125 L 410.824219 526.484375 C 410.824219 531.613281 406.675781 535.757812 401.550781 535.757812 C 396.425781 535.757812 392.277344 531.613281 392.277344 526.484375 Z M 336.625 421.855469 C 335.324219 416.914062 338.273438 411.855469 343.214844 410.558594 C 348.160156 409.257812 353.214844 412.207031 354.515625 417.148438 L 374.332031 492.0625 C 375.628906 497.003906 372.683594 502.058594 367.738281 503.359375 C 362.796875 504.65625 357.726562 501.710938 356.429688 496.765625 Z M 388.183594 277.117188 L 396.382812 390.167969 C 396.46875 391.3125 396.984375 392.332031 397.78125 393.074219 C 398.546875 393.800781 399.609375 394.234375 400.78125 394.234375 C 401.984375 394.234375 403.058594 393.773438 403.839844 393.03125 C 404.636719 392.277344 405.152344 391.230469 405.210938 390.058594 L 410.683594 276.839844 C 410.699219 276.683594 410.671875 276.796875 410.671875 276.265625 C 410.671875 273.25 409.496094 270.511719 407.582031 268.5 C 405.640625 266.476562 402.976562 265.164062 399.988281 265.023438 C 399.832031 265.007812 399.945312 265.023438 399.414062 265.023438 C 399.023438 265.023438 398.730469 265.039062 398.5625 265.050781 C 395.628906 265.261719 393.03125 266.585938 391.160156 268.613281 C 389.300781 270.609375 388.15625 273.304688 388.15625 276.25 C 388.15625 276.65625 388.171875 276.9375 388.183594 277.117188 Z M 377.90625 391.480469 L 377.433594 385.085938 L 338.902344 385.085938 C 337.6875 385.085938 336.484375 384.945312 335.3125 384.695312 C 334.179688 384.457031 333.0625 384.078125 331.960938 383.589844 L 331.933594 383.578125 L 331.917969 383.589844 C 331.011719 383.1875 330.128906 382.710938 329.292969 382.152344 L 280.539062 412.25 C 278.808594 413.335938 276.976562 414.035156 275.132812 414.355469 C 272.203125 414.886719 269.183594 414.484375 266.488281 413.308594 C 263.792969 412.136719 261.433594 410.167969 259.800781 407.570312 C 258.796875 405.976562 258.070312 404.175781 257.71875 402.234375 C 255.722656 391.019531 254.464844 379.722656 253.765625 368.71875 C 252.972656 356.078125 252.914062 343.804688 253.292969 332.519531 C 253.796875 317.589844 256.839844 303.078125 262.132812 289.5625 C 267.480469 275.875 275.132812 263.136719 284.769531 251.9375 C 284.9375 251.726562 285.121094 251.546875 285.300781 251.367188 C 289.042969 247.539062 292.746094 244.1875 296.417969 241.324219 C 298.472656 239.703125 300.523438 238.265625 302.535156 236.96875 C 302.507812 234.339844 302.507812 231.6875 302.535156 229.007812 C 302.730469 201.214844 304.992188 176.316406 309.8125 152.042969 C 314.644531 127.699219 322.058594 103.902344 332.5625 78.375 C 332.660156 78.152344 332.757812 77.925781 332.867188 77.703125 L 332.882812 77.664062 C 332.992188 77.285156 333.132812 76.921875 333.300781 76.546875 C 337.964844 66.027344 343.230469 55.636719 349.164062 45.457031 C 355.113281 35.277344 361.777344 25.207031 369.261719 15.320312 C 371.203125 12.75 373.4375 10.472656 375.867188 8.519531 C 382.765625 2.988281 391.214844 0.140625 399.691406 0 C 408.199219 -0.125 416.730469 2.445312 423.769531 7.765625 C 426.214844 9.621094 428.488281 11.816406 430.527344 14.355469 C 438.097656 23.796875 444.859375 33.601562 450.90625 43.683594 C 456.980469 53.808594 462.273438 64.085938 466.867188 74.476562 L 466.839844 74.492188 L 466.921875 74.671875 C 467.117188 74.9375 467.300781 75.21875 467.46875 75.527344 C 477.046875 92.171875 483.792969 115.507812 488.316406 140.046875 C 494.15625 171.761719 496.375 205.796875 496.25 229.566406 C 496.222656 233.320312 496.152344 237.023438 496.054688 240.695312 C 509.726562 248.613281 520.621094 261.378906 528.652344 275.988281 C 539.070312 294.9375 544.78125 317.296875 545.410156 336.023438 C 545.773438 346.46875 545.746094 357.769531 545.101562 369.429688 C 544.445312 381.214844 543.1875 393.378906 541.039062 405.445312 L 540.996094 405.769531 C 540.648438 407.679688 539.921875 409.46875 538.914062 411.074219 C 537.28125 413.671875 534.921875 415.640625 532.226562 416.816406 C 529.921875 417.820312 527.339844 418.238281 524.753906 417.988281 C 524.363281 417.972656 523.972656 417.933594 523.582031 417.863281 C 521.738281 417.542969 519.910156 416.84375 518.175781 415.753906 L 466.292969 383.800781 L 466.140625 383.855469 C 465.175781 384.234375 464.144531 384.539062 463.039062 384.765625 C 461.964844 384.972656 460.875 385.085938 459.785156 385.085938 L 423.964844 385.085938 L 423.6875 390.921875 C 423.394531 397.054688 420.726562 402.515625 416.589844 406.4375 C 412.457031 410.375 406.886719 412.792969 400.78125 412.792969 C 394.792969 412.792969 389.289062 410.460938 385.167969 406.621094 C 381.0625 402.808594 378.339844 397.472656 377.90625 391.480469 Z M 376.089844 366.539062 L 369.695312 278.417969 C 369.640625 277.578125 369.613281 276.867188 369.613281 276.25 C 369.613281 268.488281 372.628906 261.335938 377.601562 256 C 382.570312 250.667969 389.484375 247.132812 397.25 246.5625 C 398.074219 246.503906 398.800781 246.476562 399.414062 246.476562 L 400.867188 246.535156 C 408.796875 246.910156 415.878906 250.386719 420.992188 255.738281 C 426.101562 261.113281 429.230469 268.347656 429.230469 276.265625 L 429.160156 277.703125 L 424.871094 366.539062 L 458.878906 366.539062 C 461.992188 355.378906 468.179688 330.953125 472.621094 298.902344 C 474.839844 282.886719 476.628906 265.007812 477.382812 246.003906 L 477.398438 245.679688 C 477.605469 240.375 477.734375 234.96875 477.761719 229.496094 C 477.898438 206.660156 475.75 173.925781 470.121094 143.382812 C 466.910156 125.953125 462.59375 109.351562 456.953125 95.972656 C 455.472656 96.433594 453.90625 96.695312 452.316406 96.695312 L 346.441406 96.695312 C 346.023438 96.695312 345.617188 96.667969 345.214844 96.640625 C 337.546875 116.765625 331.90625 135.980469 328.007812 155.605469 C 323.371094 178.914062 321.207031 202.679688 321.011719 229.078125 C 320.984375 233.308594 321.011719 237.527344 321.09375 241.714844 C 321.109375 241.953125 321.125 242.191406 321.125 242.425781 C 321.207031 246.5625 321.359375 250.667969 321.542969 254.746094 C 321.976562 263.792969 322.644531 272.496094 323.484375 280.789062 C 325.605469 301.808594 328.847656 320.425781 332.003906 335.339844 C 335.003906 349.445312 337.921875 360.199219 339.796875 366.539062 Z M 401.550781 230.164062 C 386.605469 230.164062 373.074219 224.105469 363.285156 214.316406 C 353.496094 204.523438 347.433594 190.992188 347.433594 176.050781 C 347.433594 161.148438 353.496094 147.617188 363.300781 137.8125 L 363.285156 137.785156 C 373.074219 127.992188 386.605469 121.933594 401.550781 121.933594 C 416.492188 121.933594 430.027344 127.992188 439.816406 137.785156 C 449.605469 147.574219 455.667969 161.105469 455.667969 176.050781 C 455.667969 190.992188 449.605469 204.523438 439.816406 214.316406 C 430.027344 224.105469 416.492188 230.164062 401.550781 230.164062 Z M 376.414062 201.203125 C 382.835938 207.625 391.734375 211.605469 401.550781 211.605469 C 411.367188 211.605469 420.265625 207.625 426.703125 201.203125 C 433.125 194.761719 437.105469 185.867188 437.105469 176.050781 C 437.105469 166.230469 433.125 157.335938 426.703125 150.910156 C 420.265625 144.472656 411.367188 140.492188 401.550781 140.492188 C 391.734375 140.492188 382.835938 144.472656 376.414062 150.910156 L 376.382812 150.882812 L 376.371094 150.910156 C 369.960938 157.320312 365.996094 166.203125 365.996094 176.050781 C 365.996094 185.867188 369.972656 194.761719 376.414062 201.203125 Z M 448.195312 78.136719 C 444.257812 69.617188 439.886719 61.28125 435.039062 53.179688 C 429.453125 43.867188 423.167969 34.761719 416.101562 25.949219 C 415.054688 24.664062 413.882812 23.519531 412.597656 22.554688 C 408.925781 19.761719 404.441406 18.421875 399.988281 18.492188 C 395.515625 18.558594 391.078125 20.054688 387.472656 22.945312 C 386.230469 23.9375 385.070312 25.125 384.039062 26.480469 C 377.082031 35.683594 370.828125 45.136719 365.183594 54.800781 C 360.6875 62.523438 356.609375 70.316406 352.9375 78.136719 Z M 320.367188 365.9375 C 318.539062 359.304688 316.234375 350.242188 313.890625 339.179688 C 310.636719 323.847656 307.296875 304.601562 305.078125 282.605469 C 304.335938 275.234375 303.722656 267.59375 303.273438 259.703125 C 301.765625 261.070312 300.230469 262.566406 298.652344 264.171875 C 290.46875 273.753906 283.945312 284.617188 279.378906 296.304688 C 274.828125 307.953125 272.203125 320.382812 271.78125 333.105469 C 271.417969 343.707031 271.476562 355.351562 272.257812 367.558594 C 272.800781 376.121094 273.710938 384.945312 275.121094 393.871094 Z M 494.992188 262.59375 C 494.042969 276.417969 492.621094 289.464844 490.957031 301.445312 C 486.683594 332.351562 480.820312 356.429688 477.425781 368.941406 L 523.59375 397.375 C 525.144531 387.527344 526.09375 377.796875 526.625 368.425781 C 527.238281 357.195312 527.269531 346.457031 526.933594 336.609375 C 526.386719 320.566406 521.445312 301.320312 512.421875 284.898438 C 507.675781 276.28125 501.851562 268.515625 494.992188 262.59375 Z M 336.988281 697.046875 L 336.988281 738.679688 C 336.988281 747.042969 333.566406 754.640625 328.078125 760.171875 C 322.5625 765.714844 314.964844 769.164062 306.640625 769.164062 L 231.605469 769.164062 C 221.632812 769.164062 212.359375 770.839844 203.839844 774.179688 C 195.351562 777.503906 187.5 782.515625 180.378906 789.207031 C 180.113281 789.472656 179.945312 789.734375 179.902344 789.960938 C 179.847656 790.167969 179.890625 790.449219 180.015625 790.769531 C 180.140625 791.105469 180.324219 791.34375 180.519531 791.480469 C 180.65625 791.578125 180.894531 791.636719 181.175781 791.636719 L 628.949219 791.636719 C 629.257812 791.636719 629.539062 791.566406 629.734375 791.425781 C 629.941406 791.285156 630.125 791.0625 630.234375 790.769531 L 630.347656 790.503906 C 630.390625 790.308594 630.390625 790.128906 630.363281 789.972656 C 630.304688 789.75 630.152344 789.5 629.914062 789.234375 C 622.695312 782.515625 614.816406 777.488281 606.328125 774.164062 C 597.835938 770.828125 588.605469 769.164062 578.632812 769.164062 L 503.609375 769.164062 C 495.246094 769.164062 487.621094 765.730469 482.074219 760.183594 C 476.558594 754.667969 473.136719 747.058594 473.136719 738.679688 L 473.136719 697.046875 Z M 491.699219 697.046875 L 491.699219 738.679688 C 491.699219 741.972656 493.039062 744.976562 495.203125 747.140625 C 497.339844 749.277344 500.316406 750.605469 503.609375 750.605469 L 578.632812 750.605469 C 590.882812 750.605469 602.359375 752.714844 613.058594 756.902344 C 623.757812 761.09375 633.585938 767.363281 642.539062 775.699219 L 642.652344 775.796875 C 645.613281 778.660156 647.554688 782.152344 648.40625 785.910156 C 649.199219 789.441406 649.003906 793.171875 647.734375 796.773438 C 647.664062 797.027344 647.582031 797.261719 647.484375 797.515625 C 645.976562 801.355469 643.40625 804.511719 640.164062 806.71875 C 636.910156 808.953125 633.027344 810.195312 628.949219 810.195312 L 181.175781 810.195312 C 177.082031 810.195312 173.242188 808.9375 170.003906 806.703125 C 166.804688 804.484375 164.261719 801.328125 162.769531 797.515625 C 161.261719 793.703125 160.996094 789.707031 161.847656 785.910156 C 162.683594 782.207031 164.582031 778.785156 167.445312 775.964844 L 167.683594 775.730469 C 176.578125 767.390625 186.410156 761.121094 197.09375 756.917969 C 207.835938 752.714844 219.355469 750.605469 231.605469 750.605469 L 306.640625 750.605469 C 309.867188 750.605469 312.828125 749.277344 314.964844 747.128906 C 317.101562 744.960938 318.441406 741.972656 318.441406 738.679688 L 318.441406 697.046875 L 38.460938 697.046875 C 28.28125 697.046875 19.007812 692.871094 12.289062 686.152344 C 5.574219 679.4375 1.398438 670.164062 1.398438 659.96875 L 1.398438 145.074219 C 1.398438 134.878906 5.574219 125.621094 12.289062 118.902344 C 19.007812 112.183594 28.28125 108.007812 38.460938 108.007812 L 249.746094 108.007812 C 254.855469 108.007812 259.019531 112.15625 259.019531 117.28125 C 259.019531 122.40625 254.855469 126.554688 249.746094 126.554688 L 38.460938 126.554688 C 33.390625 126.554688 28.769531 128.652344 25.402344 132.015625 C 22.039062 135.382812 19.957031 140.003906 19.957031 145.074219 L 19.957031 659.96875 C 19.957031 665.039062 22.039062 669.660156 25.402344 673.027344 C 28.769531 676.390625 33.390625 678.488281 38.460938 678.488281 L 771.789062 678.488281 C 776.847656 678.488281 781.46875 676.390625 784.835938 673.027344 L 785.238281 672.648438 C 788.367188 669.324219 790.292969 664.855469 790.292969 659.96875 L 790.292969 145.074219 C 790.292969 140.003906 788.199219 135.382812 784.835938 132.015625 L 784.441406 131.597656 C 781.148438 128.484375 776.679688 126.554688 771.789062 126.554688 L 564.78125 126.554688 C 559.652344 126.554688 555.507812 122.40625 555.507812 117.28125 C 555.507812 112.15625 559.652344 108.007812 564.78125 108.007812 L 771.789062 108.007812 C 781.648438 108.007812 790.671875 111.949219 797.359375 118.34375 C 797.570312 118.527344 797.765625 118.707031 797.960938 118.902344 C 804.679688 125.605469 808.855469 134.878906 808.855469 145.074219 L 808.855469 659.96875 C 808.855469 669.855469 804.886719 678.890625 798.492188 685.566406 C 798.324219 685.761719 798.144531 685.957031 797.960938 686.152344 C 791.246094 692.871094 781.972656 697.046875 771.789062 697.046875 Z M 405.125 660.722656 C 398.589844 660.722656 392.65625 658.070312 388.351562 653.769531 C 384.039062 649.453125 381.371094 643.503906 381.371094 636.96875 C 381.371094 630.445312 384.023438 624.511719 388.324219 620.195312 L 388.367188 620.167969 C 392.683594 615.867188 398.605469 613.210938 405.125 613.210938 C 411.660156 613.210938 417.597656 615.878906 421.914062 620.179688 C 426.214844 624.480469 428.882812 630.417969 428.882812 636.96875 C 428.882812 643.503906 426.214844 649.4375 421.914062 653.738281 L 421.914062 653.769531 C 417.625 658.070312 411.675781 660.722656 405.125 660.722656 Z M 397.054688 645.011719 C 399.121094 647.078125 401.96875 648.363281 405.125 648.363281 C 408.269531 648.363281 411.117188 647.078125 413.167969 645.011719 L 413.183594 645.023438 C 415.238281 642.972656 416.507812 640.125 416.507812 636.96875 C 416.507812 633.824219 415.238281 630.976562 413.167969 628.921875 L 413.183594 628.910156 L 413.167969 628.894531 C 411.132812 626.84375 408.28125 625.585938 405.125 625.585938 C 401.96875 625.585938 399.121094 626.84375 397.082031 628.894531 L 397.054688 628.921875 C 395 630.960938 393.730469 633.8125 393.730469 636.96875 C 393.730469 640.125 395 642.972656 397.054688 645.011719 Z M 397.054688 645.011719 " fill-opacity="1" fill-rule="nonzero"/></svg>