<svg xmlns="http://www.w3.org/2000/svg" xmlns:xlink="http://www.w3.org/1999/xlink" width="1080" zoomAndPan="magnify" viewBox="0 0 810 809.999993" height="1080" preserveAspectRatio="xMidYMid meet" version="1.0"><defs><clipPath id="4b8494bf94"><path d="M 0.289062 381.296875 L 263.429688 381.296875 L 263.429688 798.148438 L 0.289062 798.148438 Z M 0.289062 381.296875 " clip-rule="nonzero"/></clipPath><clipPath id="d39ba269a1"><path d="M 546.738281 381.296875 L 809.722656 381.296875 L 809.722656 798.148438 L 546.738281 798.148438 Z M 546.738281 381.296875 " clip-rule="nonzero"/></clipPath><clipPath id="e4da5978da"><path d="M 250 12.148438 L 382 12.148438 L 382 247 L 250 247 Z M 250 12.148438 " clip-rule="nonzero"/></clipPath><clipPath id="4c4b455b3f"><path d="M 340 12.148438 L 560 12.148438 L 560 247 L 340 247 Z M 340 12.148438 " clip-rule="nonzero"/></clipPath></defs><path fill="#fb653e" d="M 720.167969 570.65625 L 720.167969 352.390625 C 720.167969 329.4375 701.503906 310.769531 678.5625 310.769531 C 666.449219 310.769531 654.957031 316.054688 647.027344 325.273438 C 642.609375 330.402344 612.984375 371.925781 597.941406 393.171875 L 595.539062 396.554688 L 533.902344 369.121094 C 529.441406 367.132812 524.710938 366.125 519.851562 366.125 C 506.1875 366.125 493.773438 374.1875 488.21875 386.675781 C 480.464844 404.113281 488.335938 424.617188 505.765625 432.375 L 589.992188 469.867188 C 594.453125 471.851562 599.1875 472.855469 604.054688 472.855469 C 613.066406 472.855469 621.921875 469.230469 628.347656 462.898438 L 636.953125 454.421875 L 636.953125 529.035156 L 485.285156 529.035156 C 462.347656 529.035156 443.683594 547.707031 443.683594 570.65625 L 443.683594 751.46875 C 443.683594 774.417969 462.347656 793.085938 485.285156 793.085938 C 508.226562 793.085938 526.890625 774.417969 526.890625 751.46875 L 526.890625 612.277344 L 678.5625 612.277344 C 701.503906 612.277344 720.167969 593.609375 720.167969 570.65625 " fill-opacity="1" fill-rule="nonzero"/><path fill="#fb653e" d="M 660.058594 295.464844 C 699.636719 295.464844 731.832031 263.253906 731.832031 223.660156 C 731.832031 184.070312 699.636719 151.859375 660.058594 151.859375 C 620.484375 151.859375 588.285156 184.070312 588.285156 223.660156 C 588.285156 263.253906 620.484375 295.464844 660.058594 295.464844 " fill-opacity="1" fill-rule="nonzero"/><path fill="#fb653e" d="M 597.480469 495.875 C 597.480469 487.28125 590.515625 480.3125 581.921875 480.3125 L 228.089844 480.3125 C 219.5 480.3125 212.535156 487.28125 212.535156 495.875 C 212.535156 504.464844 219.5 511.433594 228.089844 511.433594 L 376.148438 511.585938 C 376.148438 511.585938 396.414062 626.828125 405.007812 626.828125 C 413.597656 626.828125 434.046875 511.300781 434.046875 511.300781 L 581.921875 511.433594 C 590.515625 511.433594 597.480469 504.464844 597.480469 495.875 " fill-opacity="1" fill-rule="nonzero"/><g clip-path="url(#4b8494bf94)"><path fill="#fb653e" d="M 247.644531 610.578125 L 69.554688 610.578125 L 31.785156 397.148438 C 31.785156 388.554688 24.820312 381.585938 16.230469 381.585938 C 7.636719 381.585938 0.671875 388.554688 0.671875 397.148438 L 42.078125 629.523438 L 0.671875 780.683594 C -1.738281 789.191406 7.636719 796.246094 16.230469 796.246094 C 24.820312 796.246094 29.652344 789.46875 31.785156 780.683594 L 69.554688 641.695312 L 232.089844 641.695312 L 232.089844 782.585938 C 232.089844 791.179688 239.054688 798.148438 247.644531 798.148438 C 256.238281 798.148438 263.203125 791.179688 263.203125 782.585938 L 263.203125 626.136719 C 263.203125 617.539062 256.238281 610.578125 247.644531 610.578125 " fill-opacity="1" fill-rule="nonzero"/></g><g clip-path="url(#d39ba269a1)"><path fill="#fb653e" d="M 562.449219 610.578125 L 740.542969 610.578125 L 778.3125 397.148438 C 778.3125 388.554688 785.273438 381.585938 793.867188 381.585938 C 802.460938 381.585938 809.421875 388.554688 809.421875 397.148438 L 768.277344 629.523438 L 809.421875 780.683594 C 811.496094 789.800781 802.460938 796.246094 793.867188 796.246094 C 785.273438 796.246094 781.246094 789.773438 778.3125 780.683594 L 740.542969 641.695312 L 578.003906 641.695312 L 578.003906 782.585938 C 578.003906 791.179688 571.042969 798.148438 562.449219 798.148438 C 553.859375 798.148438 546.894531 791.179688 546.894531 782.585938 L 546.894531 626.136719 C 546.894531 617.539062 553.859375 610.578125 562.449219 610.578125 " fill-opacity="1" fill-rule="nonzero"/></g><path fill="#fb653e" d="M 324.726562 529.035156 L 173.054688 529.035156 L 173.054688 454.421875 L 181.664062 462.898438 C 188.089844 469.230469 196.945312 472.855469 205.957031 472.855469 C 210.824219 472.855469 215.558594 471.851562 220.019531 469.867188 L 304.242188 432.375 C 321.675781 424.617188 329.546875 404.113281 321.792969 386.675781 C 316.242188 374.1875 303.824219 366.125 290.160156 366.125 C 285.300781 366.125 280.574219 367.132812 276.109375 369.121094 L 214.46875 396.554688 L 212.070312 393.171875 C 197.023438 371.925781 167.402344 330.402344 162.988281 325.273438 C 155.054688 316.054688 143.5625 310.769531 131.449219 310.769531 C 108.507812 310.769531 89.84375 329.4375 89.84375 352.390625 L 89.84375 570.65625 C 89.84375 593.609375 108.507812 612.277344 131.449219 612.277344 L 283.121094 612.277344 L 283.121094 751.46875 C 283.121094 774.417969 301.78125 793.085938 324.726562 793.085938 C 347.667969 793.085938 366.332031 774.417969 366.332031 751.46875 L 366.332031 570.65625 C 366.332031 547.707031 347.667969 529.035156 324.726562 529.035156 " fill-opacity="1" fill-rule="nonzero"/><path fill="#fb653e" d="M 149.953125 295.464844 C 189.527344 295.464844 221.726562 263.25 221.726562 223.660156 C 221.726562 184.070312 189.527344 151.859375 149.953125 151.859375 C 110.375 151.859375 78.179688 184.070312 78.179688 223.660156 C 78.179688 263.25 110.375 295.464844 149.953125 295.464844 " fill-opacity="1" fill-rule="nonzero"/><g clip-path="url(#e4da5978da)"><path fill="#fb653e" d="M 322.730469 121.75 C 322.730469 76.621094 346.34375 36.910156 381.855469 14.316406 C 374.824219 12.898438 367.550781 12.148438 360.105469 12.148438 C 299.597656 12.148438 250.546875 61.222656 250.546875 121.75 C 250.546875 144.632812 257.5625 165.867188 269.546875 183.441406 L 250.546875 246.714844 L 317.90625 222.917969 C 330.894531 228.347656 345.148438 231.351562 360.105469 231.351562 C 367.550781 231.351562 374.824219 230.601562 381.855469 229.1875 C 346.34375 206.59375 322.730469 166.878906 322.730469 121.75 " fill-opacity="1" fill-rule="nonzero"/></g><g clip-path="url(#4c4b455b3f)"><path fill="#fb653e" d="M 449.910156 12.148438 C 510.410156 12.148438 559.464844 61.222656 559.464844 121.75 C 559.464844 144.632812 552.445312 165.867188 540.460938 183.441406 L 559.464844 246.714844 L 492.105469 222.917969 C 479.117188 228.347656 464.863281 231.351562 449.910156 231.351562 C 389.398438 231.351562 340.347656 182.285156 340.347656 121.75 C 340.347656 61.222656 389.398438 12.148438 449.910156 12.148438 " fill-opacity="1" fill-rule="nonzero"/></g></svg>