<svg xmlns="http://www.w3.org/2000/svg" xmlns:xlink="http://www.w3.org/1999/xlink" width="1080" zoomAndPan="magnify" viewBox="0 0 810 809.999993" height="1080" preserveAspectRatio="xMidYMid meet" version="1.0"><defs><clipPath id="1c5d1038a7"><path d="M 0 21.261719 L 810 21.261719 L 810 788.511719 L 0 788.511719 Z M 0 21.261719 " clip-rule="nonzero"/></clipPath></defs><path fill="#fb653e" d="M 238.328125 163.414062 L 147.636719 111.121094 L 147.636719 131.890625 L 61.585938 131.890625 C 56.417969 131.890625 52.199219 136.109375 52.199219 141.273438 L 52.199219 185.761719 C 52.199219 190.929688 56.417969 195.144531 61.585938 195.144531 L 147.636719 195.144531 L 147.636719 215.914062 Z M 65.277344 182.074219 L 65.277344 144.859375 L 160.714844 144.859375 L 160.714844 133.683594 L 212.386719 163.519531 L 160.714844 193.351562 L 160.714844 182.179688 L 65.277344 182.179688 Z M 65.277344 182.074219 " fill-opacity="1" fill-rule="nonzero"/><g clip-path="url(#1c5d1038a7)"><path fill="#fb653e" d="M 683.242188 534.929688 C 619.441406 534.929688 566.714844 581.949219 557.75 643.304688 C 554.589844 643.199219 551.425781 643.09375 548.261719 642.988281 C 540.984375 642.777344 534.128906 642.566406 527.273438 642.144531 L 526.429688 642.144531 C 525.585938 642.144531 524.640625 642.144531 523.796875 642.144531 C 515.78125 608.199219 485.199219 582.792969 448.710938 582.792969 C 412.328125 582.792969 381.640625 608.199219 373.628906 642.144531 L 250.457031 642.144531 L 250.457031 642.671875 C 236.21875 642.671875 224.199219 641.722656 213.441406 638.140625 C 210.277344 637.085938 207.324219 635.820312 204.6875 634.34375 C 198.148438 630.652344 192.035156 625.488281 186.761719 619.164062 C 213.335938 606.933594 231.894531 580.15625 231.894531 549.054688 C 231.894531 515.214844 209.960938 486.328125 179.589844 475.996094 C 180.433594 474.941406 181.277344 473.886719 182.226562 472.832031 C 184.863281 469.882812 187.816406 467.246094 190.980469 464.925781 L 192.246094 463.871094 L 192.5625 463.660156 C 195.40625 461.027344 198.570312 458.496094 201.734375 456.175781 C 207.535156 451.855469 213.757812 448.164062 220.085938 445.210938 C 223.355469 444.160156 226.832031 443.210938 231.15625 442.367188 C 246.449219 439.414062 262.898438 438.886719 278.929688 438.464844 L 279.035156 438.464844 C 286.097656 438.253906 293.375 438.042969 300.441406 437.621094 C 302.023438 437.621094 303.710938 437.621094 305.292969 437.621094 C 306.558594 437.621094 307.824219 437.621094 308.984375 437.621094 L 387.757812 437.621094 C 398.515625 467.246094 426.988281 488.542969 460.3125 488.542969 C 494.164062 488.542969 522.953125 466.71875 533.285156 436.355469 L 568.613281 436.355469 C 578.421875 436.039062 588.226562 435.617188 598.246094 435.195312 L 602.148438 435.089844 C 613.539062 434.984375 624.1875 432.035156 636.632812 425.394531 C 639.480469 423.8125 642.539062 422.125 646.332031 419.804688 L 647.703125 418.960938 L 648.96875 417.800781 C 665.527344 403.042969 679.234375 382.0625 688.515625 358.449219 C 721.3125 349.59375 745.566406 319.546875 745.566406 284.019531 C 745.566406 247.542969 720.152344 216.96875 686.195312 208.957031 C 679.550781 195.355469 670.90625 184.179688 660.675781 175.957031 C 657.933594 173.429688 655.191406 171.003906 652.449219 168.789062 C 635.15625 154.347656 619.230469 146.125 602.253906 142.75 L 600.988281 142.539062 C 577.261719 139.902344 553.535156 138.109375 529.804688 137.058594 C 522.320312 102.160156 491.421875 76.226562 454.511719 76.226562 C 417.917969 76.226562 387.125 101.84375 379.320312 136.214844 C 375 136.320312 370.570312 136.425781 366.246094 136.425781 L 365.929688 136.425781 C 338.300781 136.953125 309.933594 137.476562 281.671875 137.582031 C 269.542969 71.589844 211.542969 21.40625 142.046875 21.40625 C 63.695312 21.40625 0 85.082031 0 163.414062 C 0 241.742188 63.695312 305.417969 142.046875 305.417969 C 213.019531 305.417969 272.074219 253.023438 282.515625 184.917969 C 310.882812 184.8125 339.144531 184.285156 366.773438 183.761719 C 372.363281 183.65625 377.949219 183.550781 383.644531 183.445312 C 395.457031 211.066406 422.769531 230.355469 454.617188 230.355469 C 486.253906 230.355469 513.460938 211.277344 525.375 183.96875 C 549.316406 185.023438 573.148438 186.710938 596.875 189.347656 C 607.84375 191.667969 618.703125 197.464844 631.042969 207.796875 C 633.046875 209.484375 635.15625 211.277344 637.265625 213.277344 C 610.375 225.296875 591.496094 252.390625 591.496094 283.703125 C 591.496094 317.859375 613.855469 346.851562 644.648438 356.972656 C 639.796875 364.984375 634.101562 372.152344 627.773438 377.953125 C 625.242188 379.425781 623.238281 380.585938 621.339844 381.640625 C 613.75 385.753906 608.160156 387.441406 602.042969 387.441406 L 597.191406 387.652344 C 577.683594 388.386719 555.75 389.230469 534.550781 389.863281 C 525.273438 357.710938 495.535156 334.09375 460.417969 334.09375 C 425.195312 334.09375 395.457031 357.710938 386.28125 389.96875 L 308.984375 389.96875 C 305.925781 389.96875 302.761719 389.96875 299.597656 389.96875 L 298.753906 389.96875 C 292.003906 390.390625 285.046875 390.601562 277.769531 390.8125 C 260.578125 391.339844 242.863281 391.867188 224.9375 395.347656 C 218.714844 396.507812 213.546875 397.875 208.589844 399.5625 L 207.324219 400.089844 L 207.007812 400.195312 C 198.253906 404.203125 189.714844 409.261719 181.699219 415.167969 C 177.691406 418.117188 173.894531 421.175781 170.203125 424.550781 C 165.351562 428.238281 160.714844 432.351562 156.496094 436.988281 C 152.277344 441.628906 148.269531 446.792969 144.789062 452.277344 C 140.359375 459.023438 136.5625 466.507812 133.507812 474.519531 C 101.132812 483.691406 77.402344 513.527344 77.402344 548.738281 C 77.402344 586.902344 105.246094 618.636719 141.625 624.75 C 152.910156 647.839844 169.148438 666.289062 188.449219 677.25 L 188.660156 677.355469 C 193.089844 679.78125 197.9375 681.890625 203 683.578125 C 224.304688 690.640625 247.082031 690.113281 267.222656 689.480469 L 271.335938 689.375 C 274.921875 689.375 278.191406 689.375 281.355469 689.375 C 294.640625 689.480469 308.035156 689.902344 321.109375 690.324219 L 322.269531 690.324219 C 326.382812 690.429688 330.496094 690.640625 334.714844 690.746094 C 344.207031 690.957031 354.328125 691.0625 365.507812 691.0625 C 369.726562 691.0625 373.945312 691.0625 378.054688 691.0625 C 390.078125 717.945312 417.179688 736.710938 448.5 736.710938 C 479.820312 736.710938 506.921875 717.945312 518.945312 691.0625 L 559.542969 691.0625 C 572.832031 746.832031 623.027344 788.367188 682.925781 788.367188 C 752.949219 788.367188 809.789062 731.652344 809.789062 661.542969 C 810 591.648438 753.265625 534.929688 683.242188 534.929688 Z M 448.710938 715.203125 C 429.625 715.203125 412.855469 705.503906 402.839844 690.851562 C 401.257812 688.53125 399.886719 686.210938 398.726562 683.683594 C 397.566406 681.363281 396.617188 678.9375 395.878906 676.511719 C 394.191406 671.242188 393.242188 665.550781 393.242188 659.75 C 393.242188 658.589844 393.242188 657.539062 393.347656 656.484375 C 393.453125 654.058594 393.769531 651.632812 394.296875 649.207031 C 394.824219 646.785156 395.457031 644.359375 396.195312 641.933594 C 403.578125 620.007812 424.351562 604.296875 448.710938 604.296875 C 473.070312 604.296875 493.847656 620.113281 501.226562 641.933594 C 502.070312 644.253906 502.703125 646.679688 503.125 649.207031 C 503.546875 651.527344 503.863281 653.953125 504.074219 656.484375 C 504.179688 657.539062 504.179688 658.695312 504.179688 659.75 C 504.179688 665.65625 503.230469 671.242188 501.542969 676.617188 C 500.804688 679.042969 499.855469 681.46875 498.695312 683.789062 C 497.535156 686.210938 496.164062 688.636719 494.585938 690.851562 C 484.671875 705.503906 467.796875 715.203125 448.710938 715.203125 Z M 99.234375 548.84375 C 99.234375 528.707031 109.988281 510.996094 126.125 501.296875 C 128.761719 499.71875 131.398438 498.347656 134.246094 497.292969 C 136.773438 496.238281 139.515625 495.394531 142.257812 494.761719 C 145.84375 493.917969 149.640625 493.496094 153.4375 493.390625 C 153.859375 493.390625 154.175781 493.390625 154.597656 493.390625 C 156.707031 493.390625 158.816406 493.496094 160.925781 493.8125 C 163.351562 494.128906 165.773438 494.550781 168.09375 495.078125 C 192.140625 501.191406 209.960938 522.910156 209.960938 548.84375 C 209.960938 572.355469 195.300781 592.492188 174.527344 600.503906 C 172.3125 601.347656 169.992188 602.085938 167.566406 602.714844 C 165.140625 603.347656 162.71875 603.769531 160.1875 603.980469 C 158.289062 604.191406 156.390625 604.296875 154.386719 604.296875 C 152.382812 604.296875 150.378906 604.191406 148.375 603.980469 C 145.632812 603.664062 142.890625 603.136719 140.253906 602.503906 C 137.300781 601.769531 134.457031 600.714844 131.714844 599.449219 C 112.730469 590.699219 99.234375 571.300781 99.234375 548.84375 Z M 409.058594 389.96875 C 417.390625 369.9375 437.214844 355.707031 460.3125 355.707031 C 483.40625 355.707031 503.230469 369.832031 511.5625 389.96875 C 512.511719 392.289062 513.355469 394.714844 513.988281 397.246094 C 514.621094 399.5625 515.042969 401.988281 515.359375 404.519531 C 515.675781 406.734375 515.78125 408.945312 515.78125 411.265625 C 515.78125 415.0625 515.359375 418.644531 514.726562 422.230469 C 514.199219 424.761719 513.566406 427.183594 512.722656 429.503906 C 511.878906 432.035156 510.824219 434.460938 509.558594 436.777344 C 500.277344 454.59375 481.71875 466.71875 460.3125 466.71875 C 439.21875 466.71875 420.765625 454.804688 411.484375 437.410156 C 410.21875 435.089844 409.164062 432.667969 408.214844 430.136719 C 407.371094 427.816406 406.632812 425.394531 406.105469 422.863281 C 405.261719 419.066406 404.839844 415.167969 404.839844 411.160156 C 404.839844 408.839844 404.945312 406.628906 405.261719 404.414062 C 405.578125 401.988281 406 399.5625 406.632812 397.140625 C 407.265625 394.714844 408.109375 392.289062 409.058594 389.96875 Z M 501.226562 183.234375 C 491.316406 198.625 474.125 208.746094 454.617188 208.746094 C 435 208.746094 417.707031 198.519531 407.898438 183.023438 C 406.421875 180.703125 405.15625 178.382812 404 175.851562 C 402.945312 173.535156 402.101562 171.109375 401.363281 168.683594 C 399.992188 163.835938 399.148438 158.667969 399.148438 153.292969 C 399.148438 152.238281 399.148438 151.289062 399.253906 150.234375 C 399.359375 147.808594 399.675781 145.386719 400.097656 142.960938 C 400.519531 140.429688 401.152344 138.109375 401.996094 135.6875 C 409.375 113.652344 430.152344 97.839844 454.617188 97.839844 C 479.1875 97.839844 499.960938 113.863281 507.238281 136.003906 C 507.976562 138.320312 508.609375 140.746094 509.136719 143.277344 C 509.558594 145.597656 509.875 148.019531 509.980469 150.550781 C 509.980469 151.5 510.085938 152.449219 510.085938 153.398438 C 510.085938 158.878906 509.242188 164.046875 507.871094 169 C 507.132812 171.425781 506.289062 173.851562 505.234375 176.167969 C 503.96875 178.59375 502.597656 180.914062 501.226562 183.234375 Z M 36.171875 163.414062 C 36.171875 105.007812 83.730469 57.460938 142.152344 57.460938 C 200.574219 57.460938 248.136719 105.007812 248.136719 163.414062 C 248.136719 221.816406 200.574219 269.363281 142.152344 269.363281 C 83.730469 269.363281 36.171875 221.816406 36.171875 163.414062 Z M 652.027344 230.777344 C 654.347656 230.042969 656.773438 229.515625 659.304688 229.09375 C 661.835938 228.671875 664.367188 228.460938 667.003906 228.355469 C 667.53125 228.355469 668.058594 228.355469 668.585938 228.355469 C 672.277344 228.355469 675.753906 228.671875 679.234375 229.410156 C 682.082031 229.9375 684.929688 230.777344 687.566406 231.726562 C 690.625 232.78125 693.472656 234.152344 696.214844 235.734375 C 712.769531 245.328125 724.054688 263.25 724.054688 283.808594 C 724.054688 304.050781 713.191406 321.761719 696.953125 331.460938 C 694.316406 333.039062 691.46875 334.410156 688.515625 335.570312 C 685.878906 336.625 683.136719 337.363281 680.394531 337.996094 C 676.703125 338.839844 672.910156 339.261719 669.007812 339.261719 C 668.902344 339.261719 668.796875 339.261719 668.585938 339.261719 C 666.160156 339.261719 663.839844 339.050781 661.414062 338.839844 C 658.988281 338.523438 656.5625 338.101562 654.242188 337.46875 C 630.621094 331.144531 613.117188 309.53125 613.117188 283.914062 C 613.011719 258.820312 629.460938 237.738281 652.027344 230.777344 Z M 596.769531 681.363281 C 595.292969 675.039062 594.554688 668.394531 594.554688 661.648438 C 594.554688 658.90625 594.660156 656.273438 594.871094 653.636719 C 595.082031 651.210938 595.398438 648.785156 595.820312 646.46875 C 603.097656 604.824219 639.480469 573.09375 683.136719 573.09375 C 731.964844 573.09375 771.71875 612.835938 771.71875 661.648438 C 771.71875 710.460938 731.964844 750.207031 683.136719 750.207031 C 646.121094 750.207031 614.382812 727.433594 601.09375 695.171875 C 599.300781 690.746094 597.824219 686.105469 596.769531 681.363281 Z M 596.769531 681.363281 " fill-opacity="1" fill-rule="nonzero"/></g><path fill="#fb653e" d="M 683.242188 703.1875 C 706.125 703.1875 724.792969 684.527344 724.792969 661.648438 C 724.792969 638.773438 706.125 620.113281 683.242188 620.113281 C 660.359375 620.113281 641.695312 638.773438 641.695312 661.648438 C 641.695312 684.527344 660.253906 703.1875 683.242188 703.1875 Z M 683.242188 703.1875 " fill-opacity="1" fill-rule="nonzero"/></svg>